<?xml version="1.0" encoding="UTF-8"?>
<svg id="Layer_1" xmlns="http://www.w3.org/2000/svg" version="1.1" xmlns:xlink="http://www.w3.org/1999/xlink" viewBox="0 0 440 550">
  <!-- Generator: Adobe Illustrator 29.1.0, SVG Export Plug-In . SVG Version: 2.1.0 Build 142)  -->
  <defs>
    <style>
      .st0 {
        fill: url(#linear-gradient2);
      }

      .st1 {
        fill: #fef3cd;
      }

      .st2 {
        fill: #f7c67f;
      }

      .st3 {
        fill: url(#linear-gradient10);
      }

      .st4 {
        fill: #fedfac;
      }

      .st5 {
        fill: #727272;
      }

      .st6 {
        fill: #f77950;
      }

      .st7 {
        fill: #fff;
      }

      .st8 {
        opacity: .3;
      }

      .st9 {
        fill: url(#linear-gradient1);
      }

      .st10 {
        fill: #e22b2b;
      }

      .st11 {
        fill: url(#linear-gradient9);
      }

      .st12 {
        fill: url(#linear-gradient8);
      }

      .st13 {
        fill: url(#linear-gradient11);
      }

      .st14, .st15 {
        fill: none;
      }

      .st16 {
        fill: #ffd682;
      }

      .st17 {
        fill: #f7b044;
      }

      .st18 {
        fill: #e85d3d;
      }

      .st19 {
        fill: url(#linear-gradient16);
      }

      .st20 {
        fill: #e30613;
      }

      .st21 {
        fill: #fff4e9;
      }

      .st22 {
        fill: #fcbb47;
      }

      .st23 {
        fill: #bcbec0;
      }

      .st24 {
        fill: url(#linear-gradient12);
      }

      .st25 {
        fill: url(#linear-gradient7);
      }

      .st15 {
        stroke: #111;
        stroke-linecap: round;
        stroke-miterlimit: 10;
        stroke-width: 1.5px;
      }

      .st26 {
        fill: url(#linear-gradient4);
      }

      .st27 {
        fill: url(#linear-gradient14);
      }

      .st28 {
        fill: url(#linear-gradient5);
      }

      .st29 {
        fill: url(#linear-gradient3);
      }

      .st30 {
        fill: #45241b;
      }

      .st31 {
        fill: url(#linear-gradient15);
      }

      .st32 {
        fill: url(#linear-gradient17);
      }

      .st33 {
        fill: url(#linear-gradient6);
      }

      .st34 {
        fill: #b32624;
      }

      .st35 {
        fill: #edb04c;
      }

      .st36 {
        fill: url(#linear-gradient13);
      }

      .st37 {
        fill: #111;
      }

      .st38 {
        fill: url(#linear-gradient);
      }

      .st39 {
        clip-path: url(#clippath);
      }
    </style>
    <clipPath id="clippath">
      <rect class="st14" width="440" height="550"/>
    </clipPath>
    <linearGradient id="linear-gradient" x1="93.4" y1="437.6" x2="104" y2="437.6" gradientUnits="userSpaceOnUse">
      <stop offset="0" stop-color="#ffd746"/>
      <stop offset=".6" stop-color="#ffaf49"/>
      <stop offset="1" stop-color="#ff984c"/>
    </linearGradient>
    <linearGradient id="linear-gradient1" x1="145.7" y1="466.8" x2="156.4" y2="466.8" xlink:href="#linear-gradient"/>
    <linearGradient id="linear-gradient2" x1="113.6" y1="364.2" x2="124.3" y2="364.2" xlink:href="#linear-gradient"/>
    <linearGradient id="linear-gradient3" x1="81.2" y1="363.9" x2="86.2" y2="363.9" xlink:href="#linear-gradient"/>
    <linearGradient id="linear-gradient4" x1="94.6" y1="381.1" x2="99.6" y2="381.1" xlink:href="#linear-gradient"/>
    <linearGradient id="linear-gradient5" x1="122.3" y1="452.1" x2="127.2" y2="452.1" xlink:href="#linear-gradient"/>
    <linearGradient id="linear-gradient6" x1="72.6" y1="396.2" x2="77.5" y2="396.2" xlink:href="#linear-gradient"/>
    <linearGradient id="linear-gradient7" x1="207" y1="456.4" x2="212" y2="456.4" xlink:href="#linear-gradient"/>
    <linearGradient id="linear-gradient8" x1="126.9" y1="420.7" x2="131.8" y2="420.7" xlink:href="#linear-gradient"/>
    <linearGradient id="linear-gradient9" x1="365.8" y1="129.9" x2="374.3" y2="129.9" xlink:href="#linear-gradient"/>
    <linearGradient id="linear-gradient10" x1="351" y1="74" x2="359.5" y2="74" xlink:href="#linear-gradient"/>
    <linearGradient id="linear-gradient11" x1="301.3" y1="165" x2="309.8" y2="165" xlink:href="#linear-gradient"/>
    <linearGradient id="linear-gradient12" x1="327" y1="189.6" x2="330.9" y2="189.6" xlink:href="#linear-gradient"/>
    <linearGradient id="linear-gradient13" x1="330" y1="168.8" x2="333.9" y2="168.8" xlink:href="#linear-gradient"/>
    <linearGradient id="linear-gradient14" x1="360.7" y1="102.1" x2="364.6" y2="102.1" xlink:href="#linear-gradient"/>
    <linearGradient id="linear-gradient15" x1="355.2" y1="174" x2="359.1" y2="174" xlink:href="#linear-gradient"/>
    <linearGradient id="linear-gradient16" x1="307" y1="40.4" x2="310.9" y2="40.4" xlink:href="#linear-gradient"/>
    <linearGradient id="linear-gradient17" x1="335.9" y1="119.9" x2="339.8" y2="119.9" xlink:href="#linear-gradient"/>
  </defs>
  <g class="st39">
    <rect class="st1" width="440" height="550"/>
    <g>
      <g>
        <ellipse class="st8" cx="225.7" cy="443.9" rx="126" ry="34.6"/>
        <g>
          <path class="st6" d="M344.4,428h0c.1,11.8-6.4,23.8-17.7,27-99.3,27.8-176.4,10.9-207.6-6.5-7.9-4.4-13.2-12.2-14.5-21-.2-1.2-.3-2.5-.3-3.7l-.4-23-.2-10.8-.3-21.6-1.9-117.6-.4-21.7-.5-29.6-.4-26.1-.6-35.7h240.5l.5,33.4.4,27.8.4,31.2.3,20.9,1.7,117.9.3,20.7v10.3c.1,0,.5,27.9.5,27.9Z"/>
          <ellipse class="st23" cx="220" cy="137.7" rx="124.4" ry="28.3"/>
          <path class="st17" d="M344.4,428c-58.8,19-149.3,25.1-239.8-.5-.2-1.2-.3-2.5-.3-3.7l-.4-23c61.4,23.6,168.8,28.6,240-.7l.4,27.9Z"/>
          <path class="st17" d="M341.2,198.9c-59.5,18.2-149.6,24.2-240.4.5l-.4-26.1c63.8,21.6,169.1,25.6,240.4-2.2l.4,27.8Z"/>
          <path class="st18" d="M275.4,175.8c-21.8-.2-43.6,1-65.4.4-22.1-.6-44.1-2.5-65.9-6.5-10.9-2-21.5-4.7-31.1-10.3-.4-.2-.8.3-.5.6,7,6.4,16.1,9.3,25.1,11.4,10.5,2.4,21.2,4.1,31.9,5.4,22.4,2.6,45.1,3.2,67.7,2.8,12.8-.2,25.4-.9,38.1-2.4.9-.1,1-1.4,0-1.4Z"/>
          <path class="st18" d="M317.5,449c-7.5.5-14.9,2.7-22.3,4.1-7.8,1.4-15.7,2.6-23.6,3.6-7.6,1-15.1,1.7-22.7,2.3-4,.3-7.9.6-11.9.9-3.7.3-7.4.4-11,1.3-.4,0-.4.7,0,.8,7.3,1.5,15.5.5,22.9,0,7.8-.6,15.5-1.3,23.2-2.3,7.5-.9,15-2.1,22.5-3.4,7.7-1.3,16-2.3,23.2-5.2,1-.4,1-2.1-.3-2Z"/>
          <path class="st21" d="M109.1,229.6c-.1-4.1-.3-8.1-.4-12.2-.1-3.8,0-7.8-.9-11.5-.1-.5-1-.3-1,.1-.7,3.9-.1,8.2,0,12.2.1,3.9.3,7.9.4,11.8.3,8,.4,16,1.4,24,0,.4.8.4.8,0,.4-8.1,0-16.2-.3-24.3Z"/>
          <path class="st21" d="M115.1,378.3c0-.6-1.1-.7-1.1,0-.3,7.4-.2,15.1.7,22.5,0,.5.9.4.9,0,.5-7.4.2-15-.5-22.4Z"/>
          <path class="st30" d="M324.5,214.3c-27.6,3.7-55,7.2-82.8,8-27.5.8-55.1-.4-82.4-3.5-15.6-1.8-31-4.1-46.6-6.3-.2,0-.3.3,0,.3,26.8,7,54.8,9.9,82.4,11.4,28,1.5,56.1.9,84-1.7,15.4-1.5,30.8-3.4,46-6.7,1.1-.2.6-1.8-.4-1.6Z"/>
          <path class="st30" d="M329.9,371.7c-7.4.5-14.7,2-22.1,3.1-7.4,1.2-14.9,2.2-22.3,3.2-15,1.9-30,3.5-45.1,3.8-14.2.3-28.5,0-42.7-.5-13.8-.5-27.6-1.4-41.3-3.4-15.6-2.3-30.5-6.4-45.6-11.1-.3-.1-.6.4-.2.6,12.2,6.4,26.1,9.8,39.6,12.2,13.7,2.5,27.6,3.6,41.4,4.3,14.3.7,28.6.9,42.8,1,15.3,0,30.5-1.3,45.6-3.1,8.3-1,16.5-2.1,24.7-3.4,8.5-1.3,17.2-2.6,25.4-5.2.9-.3.8-1.7-.2-1.7Z"/>
          <path class="st30" d="M337.1,179.1c-7.5.8-15,3-22.5,4.4-7.5,1.4-14.9,2.8-22.4,4-15.2,2.5-30.6,4.3-45.9,5.4-30.3,2.2-60.9,1.5-91-3.1-17-2.6-33.9-6.5-50.3-11.5-.4-.1-.5.5-.2.6,58.1,19.9,121.1,19.6,181.3,11.3,8.5-1.2,16.9-2.5,25.3-4,4.3-.8,8.7-1.7,13-2.6,4.3-.9,8.7-1.6,12.9-3.1.7-.3.7-1.6-.2-1.5Z"/>
          <path class="st30" d="M330.4,409.3c-14,3.6-27.9,7.2-42.2,9.7-14.5,2.5-29.1,4.1-43.8,4.9-29.1,1.6-58.4-.2-87.1-5.3-16.1-2.8-32-6.7-47.6-11.3-.2,0-.3.3,0,.3,55.1,18.5,115.1,22.4,172.4,13.6,16.4-2.5,32.9-5.8,48.6-11,.6-.2.3-1-.2-.9Z"/>
          <g>
            <path class="st21" d="M287.7,365.5c-32.8,7.8-66.5,6.6-100.2,5.2-11.5-.5-23.1-1.2-34.3-4.2-11.1-3-21.9-8.4-29.7-16.9-12.2-13.4-13.8-32.8-4.3-48.3,9.4-15.3,27.5-20.1,44.3-22,13.4-1.6,27-1.8,40.5-1.8,21.4,0,42.9-.5,64.3,1.2,18.2,1.4,40.5,2.3,52.9,17.6,6.3,7.8,9.6,17.9,9.6,28,0,8.1-1.9,16.4-6.8,22.8-6.7,8.9-17.7,13.2-28.3,16.3-2.7.8-5.4,1.5-8.1,2.1Z"/>
            <path class="st6" d="M225.5,367.5c-11.9,0-23.7-.5-35.4-.9-9.8-.4-21.3-1-32-3.8-11.7-3-21.4-8.3-28.1-15.3-11.6-12.2-13.3-30-4.2-44.3,9.5-14.9,28.5-18.6,42-20.1,12.8-1.4,25.6-1.6,37.6-1.6,3.7,0,7.3,0,11,0,15.9,0,32.4-.1,48.6,1.1.9,0,1.8.1,2.8.2,16.8,1.2,35.8,2.6,47,15.9,5.9,6.9,9.1,16,9.2,25.6,0,8.1-2.2,15.6-6.5,21-6.6,8.4-17.3,12.2-26.9,14.8-2.5.7-5,1.3-7.5,1.9h0c-19.1,4.4-38.4,5.5-57.6,5.5ZM204.8,283.9c-11.7,0-24.3.2-36.7,1.6-12.9,1.4-31.2,5-40.1,19-8.5,13.3-7,29.8,3.9,41.2,6.4,6.7,15.7,11.8,26.9,14.6,10.5,2.7,21.8,3.3,31.5,3.7,30.4,1.2,61.8,2.4,92.4-4.6,2.5-.6,5-1.2,7.4-1.9,9.2-2.5,19.5-6.2,25.6-14,3.9-5,6.1-11.9,6-19.4,0-9-3.2-17.5-8.6-24-10.5-12.5-29-13.8-45.3-15-.9,0-1.9-.1-2.8-.2-16.1-1.2-32.5-1.2-48.4-1.1-3.7,0-7.3,0-11,0-.2,0-.4,0-.6,0Z"/>
            <path class="st30" d="M297.6,343.7c-4.9.5-9.7,1.9-14.6,2.8-4.9,1-9.9,1.8-14.9,2.6-10.3,1.5-20.7,2.4-31.1,2.8-20.6.8-41.3-.5-61.7-4-11.3-1.9-22.6-4.4-33.6-7.3-.3,0-.4.4-.1.5,39.1,12.7,81.5,15.7,122.2,10.6,5.6-.7,11.3-1.6,16.9-2.6,5.7-1.1,11.7-2,17.1-4.1.6-.2.6-1.2-.2-1.2Z"/>
            <g>
              <g>
                <path class="st30" d="M174.7,312.1c0,.1.1.2.2.2.1,0,.2,0,.3.1.9.5,1.7,1.1,2.5,1.7.8.6,1.5,1.3,2.1,2.1.5.7,1,1.4,1.4,2.2.4.8.7,1.6.9,2.4.3.9.4,1.7.5,2.5,0,.8.1,1.7.1,2.6,0,1,0,2,0,3,0,1-.2,2-.3,3-.1.8-.4,1.6-.7,2.3-.3.7-.8,1.4-1.3,2-1.4,1.7-3.2,3-5.4,3.9-2.1.8-4.3,1.1-6.6.7-2-.3-3.9-.9-5.6-1.8-1.2-.6-2.2-1.5-3-2.5-.1-.1-.2-.3-.3-.4,0-.1-.2-.3-.4-.4,0,.2-.2.3-.2.5,0,.1-.1.3-.2.4,0,.1-.1.2-.2.3,0,0-.2,0-.3,0-.1,0-.4,0-.7-.1-.3,0-.5-.2-.5-.3-.1-.5-.2-.9-.2-1.4,0-.5,0-.9.1-1.4,0-.5.2-.9.3-1.3.1-.4.2-.9.4-1.3.4-1.9.9-3.9,1.3-5.8.4-1.9.9-3.8,1.3-5.7.2-1.1.5-2.2.7-3.2.2-1.1.4-2.2.7-3.2.2-.8.3-1.6.5-2.4.1-.8.3-1.6.5-2.4.4-2,.7-4,.9-5.9.1-1,.2-1.9.4-2.8.2-.9.4-1.8.7-2.7.1-.3.2-.6.3-.9,0-.3.1-.6.2-.9,0-.2.2-.4.3-.6,0-.2.2-.4.3-.6.1-.3.3-.4.5-.5.2,0,.4-.1.7-.1.2,0,.4,0,.5.2.1.1.2.3.3.5.1.3.2.6.3.8,0,.3.2.5.3.8,0,.1,0,.2,0,.3,0,.1,0,.2,0,.3-.1.8-.2,1.5-.4,2.3-.1.8-.2,1.5-.4,2.3-.1.8-.2,1.6-.4,2.4-.1.8-.2,1.6-.2,2.4.3-.3.5-.6.7-.8.2-.3.5-.6.7-.8.8-.9,1.6-1.7,2.5-2.5.9-.7,1.8-1.5,2.7-2.1.7-.5,1.4-1,2.2-1.5.7-.5,1.5-.8,2.4-1.2,1.2-.5,2.4-.7,3.7-.6.8,0,1.5.4,2,1.1.4.6.6,1.3.6,2.1,0,.4,0,.7,0,1.1,0,.4,0,.7,0,1.1,0,.7-.2,1.3-.4,1.9-.2.6-.5,1.2-.8,1.8-.7,1.2-1.5,2.3-2.6,3.1-1,.9-2.2,1.6-3.5,2.3-.3.2-.7.3-1,.5-.3.2-.7.3-1.1.4-.1,0-.2,0-.3.1,0,0-.2.1-.2.3ZM177.4,327.5c.3-1.8.5-3.7.4-5.6,0-.8-.1-1.6-.4-2.3-.2-.8-.6-1.5-1.1-2.1-1.2-1.4-2.6-2.4-4.2-3.1-.4-.2-.8-.3-1.3-.4-.4,0-.9-.1-1.3,0-.5,0-.9,0-1.4,0-.5,0-.9,0-1.4-.1-.4,0-.6,0-.7,0,0,0-.2.2-.3.5-.2.5-.4,1-.5,1.5-.1.5-.2,1-.3,1.5-.1.5-.2,1-.3,1.5-.1.5-.2,1-.4,1.5-.2.7-.4,1.5-.6,2.2-.2.7-.4,1.4-.6,2.2-.1.6-.3,1.2-.5,1.7-.2.6-.4,1.1-.6,1.7-.2.7-.3,1.4-.2,2.1.1.7.5,1.3,1.1,2,1,1.1,2.2,1.9,3.4,2.4,1.2.5,2.7.7,4.2.5,1.6-.2,2.9-.6,4-1.4,1.1-.8,1.8-1.8,2.3-3.1.2-.5.3-1,.4-1.5,0-.5.2-1,.3-1.5ZM181.2,299c-1.4.3-2.6.9-3.8,1.6-1.7,1.2-3.3,2.6-4.7,4-1.5,1.4-2.9,2.9-4.2,4.6,0,.1-.2.2-.2.4,0,.1-.2.3-.2.5.4-.2.8-.4,1.1-.6.4-.1.7-.3,1-.4.5-.2,1.1-.4,1.6-.7.5-.2,1.1-.5,1.6-.8.5-.3,1-.6,1.5-1,.5-.3,1-.7,1.5-1.1,2.2-1.7,3.8-3.8,4.8-6.5Z"/>
                <path class="st30" d="M215,332.5c-.5.9-1.1,1.9-1.6,2.8-.6.9-1.2,1.8-1.8,2.7-.6.9-1.2,1.7-2,2.5-.7.8-1.5,1.5-2.3,2.2-1.3,1.1-2.7,1.9-4.2,2.4-1.6.5-3.3.6-5.2.2-2-.4-3.7-1.1-5-2.2-1.3-1.1-2.4-2.4-3.1-4-.5-1.2-.9-2.4-1.1-3.5-.2-1.2-.3-2.4-.3-3.6,0-1,0-1.9.2-2.8.1-.9.3-1.8.5-2.8.2-1,.4-1.9.7-2.8.3-.9.7-1.8,1.1-2.7.6-1.3,1.3-2.6,2-3.8.8-1.2,1.7-2.3,2.8-3.3.7-.6,1.4-1.2,2.1-1.6.8-.5,1.6-.9,2.4-1.2.7-.3,1.5-.5,2.2-.6.8-.2,1.5-.2,2.3-.2.9,0,1.7.1,2.6.3.8.2,1.6.6,2.4,1.2.2.2.4.3.6.4.2.1.4.3.6.4.7.5,1.3,1.1,1.9,1.8.5.7,1,1.4,1.4,2.2.4.8.7,1.6.8,2.4,0,.8,0,1.7-.2,2.6-.7,2.8-2.3,5.2-4.8,7.1-.7.6-1.5,1.1-2.2,1.6-.8.5-1.6,1-2.4,1.4-1.2.6-2.4,1-3.7,1.3-1.3.3-2.6.4-4,.3,0,0-.1,0-.4,0,0,1,.3,2,.5,2.9.3.9.7,1.8,1.4,2.6.6.7,1.2,1.2,1.9,1.5.7.4,1.6.6,2.5.7.4,0,.7,0,1-.1.3-.1.6-.3.9-.4.6-.4,1.2-.9,1.8-1.4.5-.5,1-1,1.5-1.6.7-.8,1.3-1.6,1.8-2.4.5-.8,1-1.6,1.5-2.5.2-.4.5-.7.8-1,.3-.3.7-.4,1.2-.5.3,0,.6.1.8.2.2.1.3.3.4.5,0,.2,0,.5-.2.8ZM197,331.1c.3,0,.6,0,.9,0,.3,0,.5,0,.8,0,.9,0,1.8-.3,2.7-.6.8-.3,1.6-.6,2.4-1.1.6-.3,1.2-.7,1.8-1.1.6-.4,1.1-.7,1.7-1.1,1.1-.8,2-1.7,2.7-2.8.7-1.1,1.2-2.2,1.5-3.5.2-.6.2-1.1,0-1.6,0-.5-.3-1-.7-1.5-.7-.9-1.6-1.6-2.7-1.9-1.1-.3-2.1-.3-3.3.1-1,.4-1.9.9-2.6,1.5-.8.6-1.4,1.4-2,2.2-.9,1.4-1.7,2.9-2.2,4.5-.3.9-.5,1.8-.7,2.6-.2.9-.3,1.8-.3,2.7,0,.3,0,.5,0,.8,0,.2,0,.5,0,.8Z"/>
                <path class="st30" d="M250.2,346.1c-.3,0-.6,0-.9,0-.2,0-.5-.1-.8-.2-.3-.1-.6-.3-.8-.5-.9-.9-1.5-2-2-3-.5-1.1-.9-2.2-1.3-3.4-.2-.7-.4-1.4-.6-2.1-.2-.7-.3-1.4-.4-2.2-.2-1.1-.4-2.2-.6-3.2-.2-1.1-.4-2.1-.6-3.2,0-.3,0-.6,0-.9,0-.3,0-.6-.1-1-.2.3-.4.5-.6.7-.2.2-.3.5-.4.7-.4,1.1-.9,2.2-1.5,3.3-.6,1.1-1.2,2.1-1.7,3.2-.3.4-.5.9-.7,1.4-.2.5-.4.9-.7,1.4-.2.3-.4.6-.7.9-.2.3-.5.6-.7.9-.6.6-1.2,1.2-1.8,1.8-.6.6-1.4,1-2.2,1.4-1.3.6-2.8.9-4.3.7-.7,0-1.3-.2-1.8-.6-.5-.3-1-.7-1.4-1.2-.4-.5-.7-1-.9-1.6-.2-.6-.3-1.1-.4-1.7-.2-1.1-.2-2.2,0-3.3.1-1.1.4-2.2.6-3.3.2-.8.5-1.6.7-2.4.3-.8.6-1.5,1-2.3,1-1.7,2.3-3.3,3.9-4.6,1-.8,1.9-1.6,2.9-2.3,1-.7,2.1-1.3,3.3-1.9,1.2-.6,2.4-1,3.5-1.4,1.2-.4,2.4-.7,3.6-.9,0,0,.1,0,.2,0,0,0,0,0,.1,0,.2-.6.3-1.1.5-1.7.1-.5.3-1.1.5-1.6,0-.3.2-.4.4-.6.2-.1.5-.2.8-.1.6,0,1.1.2,1.4.6.3.4.5.8.6,1.2.2.5.2,1.1.2,1.6,0,.6,0,1.1,0,1.6,0,1.4,0,2.7,0,4.1,0,1.4.2,2.7.4,4.1.3,1.7.6,3.4,1,5,.4,1.6.9,3.3,1.4,4.9.3,1,.6,1.9,1,2.9.4,1,.7,1.9,1.1,2.9.2.5.4,1.1.7,1.6.2.5.5,1,.7,1.6,0,0,0,.2.2.5,0,.3,0,.6,0,.8-.1.2-.3.4-.6.7-.2.2-.4.4-.7.5-.3.1-.5.2-.7.3-.3.1-.6.2-.9.3ZM230.5,338.3c0,0,.1,0,.2,0,.2,0,.3,0,.4-.1,1.5-.8,2.6-1.8,3.4-3.2.2-.4.4-.8.6-1.2.2-.4.4-.8.6-1.2.4-.7.9-1.5,1.4-2.2.5-.7.9-1.5,1.1-2.3.2-.6.5-1.3.8-1.9.3-.6.6-1.2.8-1.8.3-.8.6-1.6,1-2.4.3-.8.6-1.6.8-2.4,0-.3.1-.5.2-.8,0-.3,0-.5,0-.8-.3,0-.5.1-.8.2-.2,0-.5.2-.7.3-.9.5-1.7.9-2.6,1.4-.8.5-1.7,1-2.5,1.6-.6.5-1.2,1-1.8,1.5-.6.5-1,1.1-1.4,1.8-.1.3-.3.6-.5.9-.2.3-.3.6-.4.9-.2.5-.4,1-.6,1.5-.2.5-.3,1-.5,1.5-.1.4-.2.9-.3,1.3,0,.5,0,.9-.2,1.4-.1.8-.1,1.5-.1,2.3,0,.8.1,1.5.3,2.3,0,.3.1.5.2.8,0,.3.2.5.5.7Z"/>
                <path class="st30" d="M266.6,332c0-.5.2-1,.3-1.4,0-.5.2-1,.3-1.4.1-.8.2-1.6.4-2.4.2-.8.4-1.6.6-2.3.2-.8.5-1.7.8-2.6.3-.9.6-1.7.9-2.6.3-.8.6-1.5.9-2.3.3-.7.6-1.5.9-2.2.3-.6.5-1.2.8-1.8.3-.6.5-1.2.9-1.7.2-.4.4-.7.7-1.1.3-.4.5-.7.7-1.1.1-.2.3-.4.4-.6.1-.2.3-.4.4-.6.3-.4.6-.7,1.2-.8.3,0,.5,0,.7,0,.2,0,.5,0,.7,0,.3,0,.5,0,.7.2.2.1.4.3.6.4.2.2.4.4.6.6.2.2.3.5.4.7.5,1.1.8,2.1,1.1,3.2.2,1.1.4,2.2.5,3.4.1,1,.2,1.9.3,2.9,0,1,.2,1.9.3,2.9.2,1.7.4,3.4.6,5,.2,1.7.6,3.3.9,5,.2.8.4,1.6.6,2.4.2.8.4,1.6.7,2.3,0,.2.2.5.3.7,0,.2.2.4.3.6,0,.2.2.3.2.5,0,.2,0,.4-.1.6,0,0,0,0,0,0,0,0,0,0,0,0,.1.4,0,.7-.1.9-.2.2-.5.4-.8.6-.3.2-.6.4-.9.5-.3.2-.6.4-1,.5-.5.3-1.1.3-1.7.3-.6,0-1.1-.3-1.6-.6,0,0-.2-.2-.2-.3,0-.1,0-.2-.2-.3,0,0,0-.2,0-.2,0,0,0-.2,0-.2-1-2.4-1.6-4.9-1.9-7.5,0-.5-.2-1-.3-1.5,0-.5-.1-1-.2-1.5,0-.8-.1-1.6-.2-2.4,0-.8,0-1.6-.1-2.4,0-.7,0-1.3,0-2,0-.7,0-1.4,0-2,0-.5,0-1.1,0-1.6,0-.5,0-1.1,0-1.6,0-1,0-2,0-3,0-1,0-2-.1-3,0-.1,0-.3,0-.4,0-.1,0-.3,0-.5-.7.6-1.2,1.3-1.5,2-.2.4-.4.9-.6,1.3-.2.4-.3.9-.5,1.3-.2.5-.4,1-.6,1.4-.2.5-.4,1-.6,1.4-.2.5-.4,1-.6,1.6-.2.7-.5,1.5-.7,2.2-.2.7-.5,1.5-.7,2.2-.1.3-.2.7-.3,1.1,0,.4-.2.7-.2,1.1-.2.9-.4,1.9-.6,2.8-.2.9-.4,1.9-.6,2.8-.1.5-.2,1-.2,1.4,0,.5-.1,1-.2,1.4-.1.7-.2,1.4-.1,2.1,0,.7,0,1.4,0,2.1,0,.3,0,.7,0,1,0,.3,0,.7,0,1,0,.3,0,.6,0,.9,0,.3,0,.6,0,.9,0,.5-.2.9-.4,1.3,0,.2-.2.3-.3.5-.1.1-.3.2-.5.4-.2,0-.4.2-.6.2-.2,0-.4,0-.6,0-.2,0-.4,0-.6,0-.2,0-.3,0-.5-.2-.7-.5-1.2-1-1.5-1.6-.5-.9-.9-1.8-1.3-2.7-.3-.9-.6-1.8-.8-2.8-.2-1.1-.5-2.2-.8-3.3-.3-1.1-.5-2.2-.7-3.3-.2-1.3-.4-2.6-.5-3.9-.1-1.3-.3-2.6-.4-4-.1-1-.2-2.1-.2-3.1,0-1,0-2.1-.1-3.2,0-1.3,0-2.7,0-4.1,0-.4,0-.8.1-1.2,0-.4.2-.8.5-1.2.2-.4.5-.6.9-.7.3,0,.6-.1.9,0,.3,0,.6.2.8.5.3.3.5.6.6.9.2.3.3.6.4,1,.1.5.2.9.3,1.3.1.4.2.8.4,1.3.2.6.4,1.2.5,1.9.1.6.3,1.2.4,1.9.2,1,.3,1.9.5,2.8.2.9.3,1.9.5,2.8.2,1,.4,2,.5,3.1.2,1,.4,2,.5,3.1,0,.3.1.6.2.9,0,.3.1.6.2.9,0,0,.1,0,.2,0Z"/>
              </g>
              <path class="st30" d="M140.4,319.1c-2.9-.3-5.8.4-8.7.9-2.3.4-5.6.3-7.4,1.8-.2.2,0,.4.1.5,2.2.9,5.6,0,8-.4,2.7-.3,5.6-.5,8.1-1.5.7-.3.6-1.3-.2-1.4Z"/>
              <path class="st30" d="M140.6,312.4c-3-2.1-6.3-3.4-9.8-4.6-1.7-.6-3.5-1.2-5.2-1.7-1.3-.3-2.5-.8-3.6-.1-.1,0-.1.2,0,.3.5,1.2,1.6,1.4,2.7,1.9,1.7.7,3.4,1.2,5.2,1.9,3.4,1.3,6.8,2.7,10.4,3.4.6.1,1-.7.4-1Z"/>
              <path class="st30" d="M318.8,314.7c-3.2,0-6.2,1.2-9.2,2.1-3.2.9-6.5,1.9-9.7,2.9-.5.2-.4,1,.1,1,3.5,0,6.9-.3,10.3-1.1,3.1-.8,6.4-1.7,8.8-3.8.4-.3,0-.9-.4-.9Z"/>
              <path class="st30" d="M326,329.1c-3.5-2.1-7.3-3.1-11.3-3.7-4-.5-8.5-.9-12.4.5-.6.2-.6,1,0,1.2.2.1.5.2.8.3.1,0,.2,0,.2-.2,3.5.3,7.1,0,10.6.5,3.9.5,7.8,1.5,11.7,2.2.5.1.8-.6.4-.9Z"/>
            </g>
          </g>
        </g>
        <g>
          <path class="st15" d="M149.6,104.4s36.8-3.5,52.2-29"/>
          <path class="st15" d="M290.4,104.4s-36.8-3.5-52.2-29"/>
          <g>
            <path class="st16" d="M227,25.8c-1.6-.2-17.3-1.7-28,11-11.1,13.1-10.9,34.4-1.9,47.5,1.3,1.9,11.2,14.9,25.7,14.2,1.3,0,11.9-.8,17.5-8.5,2.6-3.6,3.3-7.8,3.5-9.3.6-3.7.3-6.8-.1-11-.4-4.2-.9-5.4-1.1-9.4-.1-1.8,0-3.8.2-6.5.5-5.5,1.5-11,.1-16.4-1.9-7.6-8.3-10.6-15.8-11.5Z"/>
            <g>
              <path class="st7" d="M195.7,49.5c-.3,0-.4-.2-.4-.5,0,0,0-.2,0-.2,0,0,0-.2,0-.2,0-.2,0-.3,0-.5.2-.8.5-1.6.9-2.3.4-.7.8-1.5,1.1-2.2.4-.7.7-1.3,1.2-2,.2-.3.4-.6.6-.9l.3-.5.2-.2.2-.2c0-.1.2-.2.3-.4.1-.1.2-.3.3-.4.2-.3.5-.5.8-.4.3,0,.5.2.5.5,0,.1,0,.3,0,.4,0,.2-.1.3-.3.5-1.2,1.7-2.3,3.4-3.2,5.3-.5.9-.9,1.9-1.2,2.8,0,.2-.1.3-.2.5,0,.2-.2.3-.3.5-.1.1-.2.3-.4.4-.1,0-.3.2-.4.2,0,0,0,0,0,0Z"/>
              <path class="st7" d="M195.7,49.3c-.1,0-.2,0-.3-.2,0-.1,0-.3,0-.5,0-.2,0-.4.1-.5,0,0,0-.2,0-.3,0,0,0-.2,0-.2,0-.2.1-.4.2-.7v-.3c.2-.1.2-.2.3-.3l.3-.6.3-.6c.4-.8.9-1.7,1.4-2.5l.2-.3c0-.1.1-.2.2-.3l.4-.6.4-.6c.1-.2.3-.4.4-.6,0,0,0-.1.1-.2v-.2c.2-.1.3-.3.4-.4,0-.1.2-.3.3-.4.1-.1.2-.2.4-.3.3-.1.6,0,.6.3,0,.2,0,.3,0,.5,0,.2-.2.3-.3.5-1.1,1.5-2.1,3.1-2.9,4.8-.5.9-.9,1.9-1.3,2.8-.3.7-.7,1.5-1.3,1.6-.2,0-.2.4,0,.4.3,0,.5-.2.7-.4.1-.1.2-.2.3-.4,0-.1.2-.3.3-.4,0-.2.2-.4.3-.6,0-.2.2-.4.2-.6v-.2c0,0,.2-.2.2-.2l.2-.4c0-.1.1-.3.2-.4l.2-.4c.5-1.1,1.1-2.1,1.7-3.1l.2-.4.2-.3.2-.3.2-.3c0-.1.2-.2.2-.3,0-.1.2-.2.3-.3.2-.2.3-.5.5-.7,0,0,0-.1.1-.2,0,0,0-.1,0-.2,0-.1,0-.3,0-.4,0-.2,0-.5-.3-.6-.5-.3-1,.1-1.5.7-.7.9-1.3,1.8-1.9,2.7-.6.9-1.1,1.9-1.6,2.9-.1.3-.3.6-.4.8-.1.3-.3.6-.4.9-.2.6-.5,1.2-.6,1.8,0,.2,0,.4,0,.5,0,.2,0,.3,0,.5,0,.3.2.5.5.4.2,0,.2-.4,0-.4Z"/>
            </g>
            <g>
              <path class="st7" d="M194.7,52.4c.5,0,.6.4.6.7,0,.7-.3,1.3-.4,2,0,.6-.2,1.2-.2,1.8,0,.2,0,.6-.4.7-.6.1-1-.1-1-.5,0-.9,0-1.8.2-2.7,0-.5.1-.9.3-1.4,0-.3.4-.6.9-.6,0,0,0,0,0,0Z"/>
              <path class="st7" d="M194.7,52.5c.5,0,.5.5.4.7,0,.4-.2.7-.3,1.1-.2.8-.3,1.5-.3,2.3,0,.1,0,.3,0,.4,0,.1,0,.3-.1.4-.1.1-.5.1-.7,0-.3-.1-.3-.3-.3-.5,0-.8,0-1.7.2-2.5,0-.5.1-.9.2-1.4,0-.3.3-.7.9-.7.2,0,.1-.2,0-.2-.5,0-.8.2-1,.5,0,.2-.1.4-.2.6,0,.3,0,.5-.1.8,0,.5-.1,1-.2,1.6,0,.2,0,.5,0,.7,0,.2,0,.5,0,.8,0,.3.4.5.9.5.6,0,.7-.3.8-.6,0-.9.1-1.8.4-2.7.1-.5.3-1,.3-1.5,0-.3-.2-.6-.8-.7-.2,0-.1.2,0,.2Z"/>
            </g>
            <g>
              <path class="st37" d="M209.5,64c0-.4,0-.8,0-1.1,0,0,0,.1,0,.2,0-.5.2-.9.4-1.4,0,0,0,.1,0,.2.1-.3.3-.6.5-.8,0,0,0,0-.1.1,0-.1.2-.2.3-.3,0,0,0,0-.1.1,0,0,.1,0,.2-.1,0,0-.1,0-.2,0,0,0,.2,0,.3,0,0,0-.1,0-.2,0,.1,0,.2,0,.3,0,0,0-.1,0-.2,0,.1,0,.2,0,.4,0,0,0-.1,0-.2,0,.1,0,.2.1.3.2,0,0,0,0-.1-.1.2.2.4.4.6.6,0,0,0,0-.1-.1.2.3.4.6.5.9,0,0,0-.1,0-.2.2.6.4,1.2.5,1.8,0,0,0-.1,0-.2,0,0,0,0,0,.1,0,0,0,.2,0,.3,0,0,0,.2.1.2.1.1.3.2.5.2.2,0,.4,0,.5-.2.1-.1.2-.3.2-.5,0-.4-.1-.9-.2-1.3,0-.4-.2-.7-.4-1-.3-.6-.7-1.2-1.2-1.6-.1,0-.2-.2-.3-.2-.1,0-.2-.1-.4-.2-.2,0-.4-.1-.6-.1-.2,0-.4,0-.6,0-.2,0-.4.1-.5.2-.1,0-.2.1-.3.2,0,0-.1.1-.2.2-.1.2-.3.3-.4.5-.2.3-.3.7-.4,1-.2.7-.3,1.5-.3,2.3,0,.2,0,.4.2.5.1.1.3.2.5.2.4,0,.7-.3.7-.7h0Z"/>
              <path class="st37" d="M223.7,63.9c0-.4,0-.8,0-1.1,0,0,0,.1,0,.2,0-.5.2-.9.4-1.4,0,0,0,.1,0,.2.1-.3.3-.6.5-.8,0,0,0,0-.1.1,0-.1.2-.2.3-.3,0,0,0,0-.1.1,0,0,.1,0,.2-.1,0,0-.1,0-.2,0,0,0,.2,0,.3,0,0,0-.1,0-.2,0,.1,0,.2,0,.3,0,0,0-.1,0-.2,0,.1,0,.2,0,.4,0,0,0-.1,0-.2,0,.1,0,.2.1.3.2,0,0,0,0-.1-.1.2.2.4.4.6.6,0,0,0,0-.1-.1.2.3.4.6.5.9,0,0,0-.1,0-.2.2.6.4,1.2.5,1.8,0,0,0-.1,0-.2,0,0,0,0,0,.1,0,0,0,.2,0,.3,0,0,0,.2.1.2.1.1.3.2.5.2.2,0,.4,0,.5-.2.1-.1.2-.3.2-.5,0-.4-.1-.9-.2-1.3,0-.4-.2-.7-.4-1-.3-.6-.7-1.2-1.2-1.6-.1,0-.2-.2-.3-.2-.1,0-.2-.1-.4-.2-.2,0-.4-.1-.6-.1-.2,0-.4,0-.6,0-.2,0-.4.1-.5.2-.1,0-.2.1-.3.2,0,0-.1.1-.2.2-.1.2-.3.3-.4.5-.2.3-.3.7-.4,1-.2.7-.3,1.5-.3,2.3,0,.2,0,.4.2.5.1.1.3.2.5.2.4,0,.7-.3.7-.7h0Z"/>
              <path class="st37" d="M216.1,63.2c0,.2,0,.4.1.6,0,.2.2.4.3.5.2.3.5.6.9.7.2.1.4.2.7.2.2,0,.4,0,.5,0,.2,0,.4-.2.6-.3.1-.1.3-.3.4-.4.2-.3.4-.6.4-1,0-.1,0-.3,0-.4,0-.1-.2-.2-.3-.3-.1,0-.3,0-.4,0-.1,0-.2.2-.3.3,0,.1,0,.3-.1.4,0,0,0,0,0-.1,0,.2-.2.3-.3.5,0,0,0,0,0-.1,0,0-.2.2-.3.3,0,0,0,0,.1,0,0,0-.2.1-.3.1,0,0,0,0,.1,0,0,0-.2,0-.3,0,0,0,.1,0,.2,0,0,0-.2,0-.3,0,0,0,.1,0,.2,0-.1,0-.2,0-.3,0,0,0,0,0,.1,0-.1,0-.2-.1-.3-.2,0,0,0,0,.1,0-.1,0-.2-.2-.3-.3,0,0,0,0,0,.1,0-.1-.2-.3-.2-.4,0,0,0,0,0,.1,0-.2-.1-.3-.1-.5,0,0,0,.1,0,.2,0,0,0,0,0,0,0-.2,0-.3-.2-.4,0,0-.3-.2-.4-.2-.1,0-.3,0-.4.2,0,.1-.2.3-.2.4h0Z"/>
              <path class="st10" d="M213.8,67.4c0,.9-.6,1.7-1.3,2.1-1.1.6-2.7.7-3.8,0-1-.7-1.3-2.3-.4-3.2,1.1-1.1,3.4-1.2,4.7-.3.5.3.8.8.8,1.4Z"/>
              <path class="st10" d="M222.1,67.3c0,.3,0,.6.2.9.5,1,1.7,1.5,2.7,1.6.9,0,2-.2,2.7-.9.7-.8.7-2.1,0-2.8-1.2-1.3-4.6-1.4-5.4.5,0,.2-.1.5-.1.7Z"/>
              <path class="st22" d="M210.1,66.4c-.3.6-.8,1.1-1.1,1.7,0,.1,0,.3.1.4.1,0,.3,0,.4-.1.3-.6.8-1.1,1.1-1.7,0-.1,0-.3-.1-.4-.1,0-.3,0-.4.1h0Z"/>
              <path class="st22" d="M212.1,66.5c-.3.6-.8,1.1-1.1,1.7,0,.1,0,.3.1.4.1,0,.3,0,.4-.1.3-.6.8-1.1,1.1-1.7,0-.1,0-.3-.1-.4-.1,0-.3,0-.4.1h0Z"/>
              <path class="st22" d="M224.5,66.3c-.3.6-.8,1.1-1.1,1.7,0,.1,0,.3.1.4.1,0,.3,0,.4-.1.3-.6.8-1.1,1.1-1.7,0-.1,0-.3-.1-.4-.1,0-.3,0-.4.1h0Z"/>
              <path class="st22" d="M226.4,66.3c-.3.6-.8,1.1-1.1,1.7,0,.1,0,.3.1.4.1,0,.3,0,.4-.1.3-.6.8-1.1,1.1-1.7,0-.1,0-.3-.1-.4-.1,0-.3,0-.4.1h0Z"/>
            </g>
            <path class="st35" d="M235.5,30.1c.3.2.5.3.8.5.1,0,.2.2.4.3,0,0,0,0,0,0-.1,0,0,0,0,0,0,0,.1,0,.2.1.4.4.9.8,1.3,1.2,0,.1.2.2.3.3,0,0,0,.1.1.2,0,0,0,0,0,0,0,0,0,0,0,0,0-.1,0,0,0,0,.2.2.3.5.5.7.3.5.6,1,.8,1.5,0,.1.1.3.2.4,0,0,0,.1,0,.2,0,0,0,0,0,0,0,0,0,0,0,0,0,0,0,0,0,.1.1.3.2.5.3.8.2.5.3,1.1.5,1.7,0,.3.1.6.2.9,0,.1,0,.3,0,.4,0,0,0,.1,0,.2,0,0,0,0,0,.1,0,0,0,.2,0,0,0,.6.1,1.2.2,1.7,0,1.2,0,2.3,0,3.5,0,.1,0,.3,0,.4,0,.1,0,.2.1.3s.2.1.3.1c.3,0,.4-.2.4-.4.1-1.2.2-2.4.1-3.5,0-1.2-.2-2.4-.4-3.6-.2-1.2-.6-2.3-1.1-3.4-.5-1.1-1.1-2.1-1.9-3-.8-.9-1.7-1.7-2.7-2.4-.1,0-.3-.2-.4-.2-.2-.1-.5,0-.6.2-.1.2,0,.5.2.6h0Z"/>
            <path class="st35" d="M220.2,97.2c1.1,0,2.2,0,3.3-.2,1.1-.1,2.3-.3,3.4-.5,1.1-.2,2.1-.5,3.2-.9,1.1-.4,2.1-.8,3.1-1.3,1-.5,1.9-1.1,2.8-1.7.9-.7,1.7-1.4,2.5-2.2.8-.9,1.5-1.8,2.1-2.8.7-1.2,1.3-2.5,1.7-3.8.4-1.3.7-2.7.9-4,.2-1.4.2-2.7.2-4.1,0-.3,0-.7,0-1,0-.2-.2-.4-.4-.4-.2,0-.4.2-.4.4,0,1.3,0,2.7-.1,4,0,.3,0,.7-.1,1,0,0,0,0,0,.1,0,0,0,0,0,0,0,0,0,.2,0,.3,0,.2,0,.3,0,.5-.1.7-.2,1.3-.4,2-.2.7-.4,1.3-.6,1.9,0,.2-.1.3-.2.5,0,0,0,0,0,0,0,0,0,0,0,0,0,0,0,0,0,.1,0,0,0,.2-.1.2-.1.3-.3.6-.5.9-.3.5-.6,1.1-.9,1.6-.2.2-.3.5-.5.7,0,0,0,0,0,0,0,0,0,0,0,0,0,0,0,0,0,0,0,0,0,.1-.1.2,0,.1-.2.2-.3.3-.7.8-1.5,1.6-2.3,2.3,0,0,0,0-.1.1,0,0,0,0,0,0,0,0,0,0,0,0,0,0,0,0,0,0-.1,0-.2.2-.3.2-.2.2-.4.3-.7.5-.4.3-.9.6-1.4.8-.5.3-1,.5-1.4.7-.1,0-.2.1-.4.2,0,0-.1,0-.2,0,0,0,0,0,0,0,0,0,0,0,0,0,0,0,0,0-.1,0-.3.1-.5.2-.8.3-1,.4-2.1.7-3.1.9-.5.1-1.1.2-1.6.3-.3,0-.5,0-.8.1-.1,0-.3,0-.4,0,0,0-.1,0-.2,0,0,0,0,0,0,0,0,0,0,0-.1,0-1.1.1-2.2.2-3.2.3-.3,0-.5,0-.8,0-.2,0-.4.2-.4.4,0,.2.2.4.4.4h0Z"/>
            <path class="st35" d="M239.3,51.1c-.6,0-1.1.3-1.6.6-.5.3-.9.7-1.2,1.2-3.7,5.1-3.2,12.9,1.2,17.3.4.4.9.7,1.4.8.5,0,1,0,1.4-.4.4-.3.5-.6.6-1,0-.4,0-.8-.1-1.3-1.4-4.8-1.7-10-.6-14.9.3-.7.3-1.6-.5-2-.2,0-.3-.1-.5-.2Z"/>
            <path class="st35" d="M196.9,81.1c.8,1.4,1.7,2.8,2.7,4.1,1,1.2,2.1,2.4,3.2,3.5,1.2,1.1,2.5,2.1,3.8,3,1.3.9,2.7,1.7,4.1,2.5,1.4.7,2.9,1.4,4.4,2,.2,0,.4.1.5.2.2,0,.5,0,.5-.3,0-.2,0-.4-.3-.5-.4-.1-.7-.3-1.1-.4-.2,0-.4-.1-.5-.2,0,0-.2,0-.3-.1,0,0,0,0,0,0,0,0,0,0,0,0,0,0-.1,0-.2,0-.7-.3-1.4-.6-2.2-1-1.4-.7-2.8-1.5-4.1-2.4-.7-.4-1.3-.9-1.9-1.4,0,0-.1-.1,0,0,0,0,0,0-.1,0,0,0-.2-.1-.2-.2-.1-.1-.3-.2-.4-.4-.3-.3-.6-.5-.9-.8-1.2-1-2.3-2.2-3.3-3.4-.1-.2-.3-.3-.4-.5,0,0,0,0,0-.1,0,0,0,0,0,0,0,0,0,0,0,0,0,0-.1-.2-.2-.2-.2-.3-.5-.6-.7-1-.5-.7-.9-1.3-1.3-2,0-.2-.2-.3-.3-.5-.1-.2-.4-.3-.6-.2-.2.1-.3.4-.2.6h0Z"/>
            <path class="st37" d="M227.1,25.1c-1.3-.2-2.6-.2-3.9-.1-2.7,0-5.3.4-7.9,1.1-3.4.8-6.6,2.2-9.6,4-3.5,2.2-6.4,5.1-8.8,8.4-2.3,3.1-3.9,6.7-5.1,10.4-1.2,3.7-1.8,7.6-1.9,11.5-.1,3.9.3,7.7,1.1,11.5.8,3.6,2.2,7.2,4,10.4,1,1.7,2.1,3.3,3.4,4.8,1.7,2,3.6,3.8,5.6,5.4,2.7,2.1,5.6,3.9,8.8,5.1,3.2,1.2,6.7,1.8,10.2,1.6,2.1-.1,4.1-.5,6.1-1.1,3.2-.9,6.4-2.4,8.9-4.6,3.1-2.7,5.1-6.5,6.1-10.5.4-1.7.7-3.4.8-5.1.1-2.2,0-4.5-.3-6.7-.2-2.2-.5-4.3-.8-6.5-.3-1.9-.5-3.8-.5-5.7-.1-4.9.9-9.8,1-14.7,0-4.3-.5-8.9-3.2-12.5-2.1-2.8-5.3-4.6-8.6-5.6-1.7-.5-3.5-.8-5.3-1.1-.4,0-.7.4-.7.7s.3.7.7.7c3.4.4,6.8,1.3,9.7,3.2,2.9,1.9,4.7,4.9,5.5,8.3,1.1,4.9.3,10.1-.2,15-.2,2.2-.3,4.4-.3,6.6,0,1.9.3,3.8.6,5.7.3,2.1.6,4.2.8,6.3.2,2.2.4,4.4.2,6.6-.2,3.5-1.2,7.2-3,10.2-1.9,3.1-4.7,5.4-8,6.9-2.4,1.1-5,1.8-7.6,2.2,0,0-.1,0-.2,0,0,0,.1,0,0,0-.1,0-.2,0-.3,0-.2,0-.4,0-.6,0-.3,0-.5,0-.8,0-1.7,0-3.4,0-5.1-.3-3.4-.6-6.6-1.9-9.5-3.7-2.5-1.5-4.7-3.3-6.8-5.4-.8-.8-1.5-1.6-2.2-2.4-.3-.3-.5-.6-.8-1,0,0-.1-.1-.2-.2,0-.1,0,0,0,0,0,0,0,0,0-.1,0-.1-.2-.2-.3-.3-1.8-2.4-3.2-5.2-4.2-8-1.3-3.4-2.1-7.1-2.4-10.7-.3-3.7-.2-7.5.5-11.3.6-3.7,1.8-7.3,3.5-10.6,1.8-3.5,4.1-6.6,6.9-9.3,2.7-2.4,5.8-4.4,9.2-5.7,1.5-.6,3-1,4.5-1.4.7-.2,1.4-.3,2.1-.4.7-.1,1.2-.2,1.9-.3,1.9-.2,3.9-.3,5.8-.2.4,0,.8,0,1.2.1.4,0,.7-.4.7-.7s-.3-.7-.7-.7Z"/>
            <path class="st35" d="M207.4,88.5c-.6,0-1-.5-1.1-1-.2-.5.2-1,.7-1.1.9-.1,1.7.9,1.4,1.7-.1.3-.5.5-.9.4Z"/>
            <path class="st35" d="M212.1,86.5c-.3,0-.5-.1-.7-.3-.3-.5-.3-1,0-1.4s.9-.3,1.2,0,.5.8.3,1.3c-.1.3-.5.5-.8.4Z"/>
            <path class="st35" d="M231.6,37.5c-.3,0-.5-.1-.7-.3-.3-.5-.3-1,0-1.4s.9-.3,1.2,0,.5.8.3,1.3c-.1.3-.5.5-.8.4Z"/>
            <path class="st35" d="M214.3,91.9c-1,.4-1.6-.8-1.2-1.6s1.2-.7,1.6-.2c.2.3.3.6.2,1,0,.4-.2.7-.6.8Z"/>
            <path class="st35" d="M236.9,36.9c-.5.2-.9,0-1.1-.3s-.3-.8,0-1.2c.3-.6,1.2-.7,1.6-.2.2.3.3.6.2,1,0,.4-.2.7-.6.8Z"/>
            <path class="st35" d="M237.9,83.7c-.5.2-.9,0-1.1-.3-.2-.3-.3-.8,0-1.2.3-.6,1.2-.7,1.6-.2.2.3.3.6.2,1,0,.4-.2.7-.6.8Z"/>
            <path class="st35" d="M230.7,31.3c-.5.1-.9,0-1.1-.3-.2-.3-.2-.6,0-.9.3-.4,1.3-.5,1.7,0,.1.2.2.5.1.7,0,.3-.3.5-.7.5Z"/>
            <path class="st35" d="M232.2,62c0,1,.3,2.1.5,3.1,0,.2.3.4.5.3.2,0,.4-.3.3-.5-.2-.7-.3-1.4-.4-2.1,0,0,0,0,0,.1,0-.3,0-.6,0-.9,0-.2-.2-.4-.4-.4-.2,0-.4.2-.4.4h0Z"/>
            <path class="st35" d="M233.7,67.9c.2.4.4.8.6,1.2.2.3.4.7.6,1,.5.7,1,1.3,1.6,1.7.3.2.6.4.9.6.3.2.7.3,1,.4.3,0,.7,0,1,0,.4,0,.7-.1,1.1-.3.6-.3,1.2-.8,1.6-1.4,0,0,0-.1.1-.2,0-.1,0-.2,0-.3,0,0-.1-.2-.2-.3-.2,0-.5,0-.6.2,0,.2-.2.3-.3.5,0,0,0,0,0,0,0,0,0,0,0,0,0,0,0,0,0,0,0,0-.1.1-.2.2,0,0,0,0,0,0,0,0,0,0,0,0,0,0,0,0,0,0,0,0-.1.1-.2.1-.2,0-.3.2-.5.2,0,0,0,0,.1,0-.3.1-.6.2-.9.2,0,0,0,0,.1,0-.3,0-.6,0-.9,0,0,0,0,0,.1,0-.3,0-.5-.1-.8-.2,0,0,0,0,.1,0-.3-.1-.7-.3-1-.5,0,0,0,0-.1,0,0,0,0,0,0,0,0,0,0,0,0,0,0,0,0,0,0,0,0,0-.1-.1-.2-.2-.1-.1-.3-.2-.4-.4-.1-.1-.3-.3-.4-.4,0,0,0,0,0-.1,0,0,0,0,0,0,0,0,0,0,0,0,0,0,0,0,0,0,0,0-.1-.2-.2-.2-.2-.3-.4-.6-.6-1-.3-.5-.5-.9-.7-1.4,0,0-.2-.2-.3-.2-.1,0-.2,0-.3,0,0,0-.2.1-.2.3,0,.1,0,.2,0,.3h0Z"/>
          </g>
          <g>
            <g>
              <path class="st7" d="M116.8,142.6c.5,1.3,1,2.5,1.7,3.7.3.6.6,1.1.9,1.7.6,0,1.3,0,1.9.1-.9-1.6-1.8-3.2-2.5-4.9-.7-1.8-1.2-3.8-1.8-5.7-.2-.7-.7-1.7-1.2-1.3,0,0,0,0,0,0-.5.4-.5,1.6-.3,2.5.3,1.3.8,2.6,1.2,3.9Z"/>
              <path class="st7" d="M115.7,139.9c.2.7.5,1.5.7,2.2.3.7.5,1.5.9,2.2.3.7.7,1.4,1,2.1.3.5.6,1.1.9,1.6.1,0,.3,0,.4,0-.3-.6-.7-1.1-1-1.7-.6-1.1-1.1-2.2-1.5-3.4-.5-1.3-.9-2.6-1.3-3.9-.3-.9-.4-2.1.1-2.6.6-.4,1,1.1,1.1,1.7.3,1.1.6,2.2,1,3.3.3,1.1.8,2.2,1.2,3.2.5,1,1,2.1,1.6,3.1,0,.1.2.3.2.4.1,0,.3,0,.4,0-.6-1-1.1-1.9-1.6-2.9-.3-.6-.6-1.2-.8-1.8-.3-.6-.5-1.2-.7-1.9-.5-1.4-.8-2.9-1.3-4.3-.3-.8-.8-1.6-1.4-1.2-.5.4-.6,1.3-.5,2.2,0,.6.3,1.1.4,1.6Z"/>
            </g>
            <g>
              <path class="st4" d="M114.4,147.8c18.6.9,37.2,2.5,55.9,3.6,2.3.1,4.5.7,6.4,1.5,2.5-.1,4.9-.2,7.4-.2,0,0,0,0,0-.1,2.4-6.6,2.1-14,2-15.2-.3-5.9-1.6-7.3-2.8-15.2-1.3-8.6-.9-15.4-.8-17.2.3-5.1,1-7.9,1.6-10.4.6-2.6,1.2-4.9,1.2-9.2-.1-7.9-3.5-15.8-10.4-20.6-8.1-5.5-17.7-5.6-26.8-4.2-3.2.6-6.2,1.6-8.9,2.8-10.9,4.6-17.7,11.8-18.2,12.3-14.1,15.6-12.9,35.4-12.3,46.2.4,6.3,1,16.2,5.6,26.1Z"/>
              <path class="st14" d="M114.8,147.8c18.5.9,37,2.5,55.4,3.6,2.3.1,4.5.7,6.4,1.5,2.5-.1,4.9-.2,7.4-.2,0,0,0,0,0-.1,2.4-6.6,2.1-14,2-15.2-.3-5.9-1.6-7.3-2.8-15.2-1.3-8.6-.9-15.4-.8-17.2.3-5.1,1-7.9,1.6-10.4.6-2.6,1.2-4.9,1.2-9.2-.1-7.9-3.5-15.8-10.4-20.6-8-5.4-17.5-5.6-26.4-4.2-3.1.6-6,1.5-8.7,2.6-10.8,4.4-17.8,11.4-18.7,12.5-14.3,16.2-13.9,37.7-13.4,45.9.3,5.2,1.8,15.4,7.1,26.4Z"/>
              <path class="st2" d="M110.6,137.4c1.1,3.6,2.5,7,4.1,10.4.5,0,1,0,1.5,0-2.8-5.7-4.9-11.8-6.1-18-1.3-6.7-1.6-13.7-1-20.5.9-10.2,4-20.4,10.1-28.7,2.1-2.8,4.4-5.2,7.2-7.3,4.4-3.5,9.3-6.4,14.6-8.3,3.1-1.1,6.2-2,9.4-2.3,3.1-.3,6.2-.5,9.3-.2,5.9.5,11.9,2.5,16.1,6.8,3.7,3.8,5.9,8.9,6.6,14.1.4,2.7.3,5.6,0,8.3-.3,2.1-.9,4.1-1.3,6.1-.5,2.6-.9,5.2-1,7.8-.3,4.4-.1,8.9.3,13.3.3,3.1.8,6.1,1.5,9.1.4,1.9,1,3.8,1.3,5.8.7,4.1.5,8.6-.2,12.7-.4,2.1-.9,4.2-1.7,6.2.5,0,.9,0,1.4,0,1.6-4.2,2.2-8.8,2.2-13.2,0-1.8,0-3.6-.3-5.3-.3-2-.8-3.9-1.3-5.9-1.4-5.9-2-11.9-2-18,0-1.6,0-3.1.1-4.7.2-2.7.5-5.4,1.1-8,.5-2.2,1.1-4.3,1.4-6.6.7-5.5-.1-11.2-2.5-16.3-1.2-2.4-2.7-4.7-4.6-6.6-2.1-2.1-4.6-3.6-7.3-4.8-5.9-2.5-12.4-2.8-18.6-2.1-6.5.7-12.6,3.1-18.2,6.4-3.8,2.2-7.4,4.8-10.5,7.9-1.2,1.2-2.3,2.6-3.4,3.9-1.8,2.3-3.3,4.8-4.6,7.5-2.4,4.7-4,9.8-5,15-.8,4.3-1.2,8.8-1.3,13.2,0,3.1,0,6.1.4,9.2.5,4.4,1.4,8.8,2.7,13Z"/>
              <g>
                <path class="st7" d="M126.2,76.4c.6.5.5,1,.4,1.2-.5.6-1.2.9-1.7,1.4-.5.5-.9,1-1.4,1.4-.2.2-.3.6-.9.3-.4-.2-.7-.5-.9-.7-.2-.3-.2-.5-.1-.7.6-.9,1.2-1.7,2-2.4.4-.4.7-.7,1.1-1,.3-.2.8-.2,1.5.3,0,0,0,0,0,0Z"/>
                <path class="st7" d="M126.2,76.5c.6.6.2,1,0,1.1-.3.3-.6.5-1,.8-.7.5-1.3,1.2-1.8,1.8,0,.1-.2.2-.3.3,0,.1-.2.3-.4.2-.2,0-.6-.3-.8-.6-.3-.3-.2-.5,0-.7.5-.8,1.1-1.5,1.8-2.1.4-.4.7-.7,1.1-1,.3-.2.7-.4,1.4.2.2.2.3,0,0-.2-.6-.5-1.1-.6-1.5-.5-.2,0-.4.2-.5.4-.2.2-.4.4-.6.6-.4.4-.8.8-1.2,1.3-.2.2-.4.4-.5.7-.2.2-.4.4-.5.7,0,.3.2.9.8,1.3.7.5,1.1.4,1.3.2.6-.7,1.2-1.5,2-2.1.4-.3,1-.6,1.3-1.1.2-.3.1-.8-.5-1.4-.2-.2-.3,0,0,.2Z"/>
              </g>
              <g>
                <path class="st7" d="M119.8,84.6c.4,0,.5.4.5.9,0,.5-.3,1-.5,1.5-.1.3-.3.6-.4.9,0,.1-.1.3-.2.4,0,.1-.1.3-.2.4-.1.3-.3.6-.4.9-.1.3-.3.6-.4.9,0,.1-.1.3-.2.4l-.2.5-.2.5c0,.2-.1.3-.2.5-.1.3-.3.6-.4.9-.1.3-.2.6-.3.9-.4,1.2-.8,2.3-1.1,3.5-.2.6-.3,1.2-.5,1.8l-.2.9v.4c-.1,0-.2.4-.2.4,0,.2,0,.5-.1.8,0,.3-.1.6-.2.9-.1.6-.3,1-.7,1.2-.5.3-.9.1-1.1-.2-.1-.2-.2-.4-.2-.7,0-.3,0-.6,0-.9.5-3.6,1.5-7.1,2.8-10.5.7-1.7,1.4-3.4,2.2-5,.1-.3.3-.5.5-.8.2-.3.4-.5.6-.7.2-.2.5-.4.7-.5.2-.1.5-.2.7-.2,0,0,0,0,0,0Z"/>
                <path class="st7" d="M119.7,84.9c.4,0,.4.6.2,1.1-.2.5-.5,1.2-.7,1.5-.7,1.3-1.3,2.7-1.9,4-.6,1.4-1.2,2.9-1.6,4.3-.1.4-.2.7-.3,1.1l-.3,1.1-.3,1.1c0,.4-.2.8-.3,1.1,0,.3-.1.5-.2.8,0,.3-.1.5-.2.8,0,.2,0,.5-.2.8,0,.3-.2.5-.3.7-.3.4-.8.4-1,.1-.2-.2-.3-.5-.3-.8,0-.3,0-.7,0-1,.5-3.2,1.3-6.4,2.5-9.5.6-1.7,1.3-3.4,2.2-5,.6-1.1,1.5-2.5,2.5-2.4.3,0,.5-.6.2-.6-.4,0-.9.1-1.3.4-.2.2-.4.3-.6.6-.2.2-.4.4-.6.7-.2.3-.4.6-.6,1,0,.2-.2.3-.3.5,0,.2-.2.3-.2.5-.5.9-.9,1.9-1.3,2.9-.8,1.9-1.4,3.9-2,5.9l-.2.7-.2.7c0,.2-.1.5-.2.7v.7c-.2.2-.3.5-.3.7,0,.2,0,.5-.1.7,0,.5-.2,1-.2,1.5,0,.1,0,.3,0,.4,0,.1,0,.3,0,.4,0,.2.1.4.2.6.2.3.5.6.8.5.9,0,1.3-1.1,1.5-2.2.7-3.5,1.6-6.9,3-10.2.8-1.8,1.8-3.6,2.6-5.4.1-.3.2-.5.3-.8,0-.3.1-.5.1-.7,0-.5-.2-.8-.6-.9-.3,0-.5.6-.2.6Z"/>
              </g>
              <g>
                <path class="st7" d="M114.8,142.6c.5,1.3,1,2.5,1.7,3.7.3.5.6,1,.9,1.6.6,0,1.3,0,1.9.1-.9-1.6-1.7-3.1-2.4-4.8-.7-1.8-1.2-3.8-1.8-5.7-.2-.7-.7-1.7-1.2-1.3,0,0,0,0,0,0-.5.4-.5,1.6-.3,2.5.3,1.3.8,2.6,1.2,3.9Z"/>
                <path class="st7" d="M113.7,139.9c.2.7.5,1.5.7,2.2.3.7.5,1.5.9,2.2.3.7.7,1.4,1,2.1.3.5.5,1,.8,1.5.1,0,.3,0,.4,0-.3-.5-.6-1.1-.9-1.6-.6-1.1-1.1-2.2-1.5-3.4-.5-1.3-.9-2.6-1.3-3.9-.3-.9-.4-2.1.1-2.6.6-.4,1,1.1,1.1,1.7.3,1.1.6,2.2,1,3.3.3,1.1.8,2.2,1.2,3.2.5,1,1,2.1,1.6,3.1,0,.1.1.2.2.3.1,0,.3,0,.4,0-.5-.9-1.1-1.8-1.5-2.8-.3-.6-.6-1.2-.8-1.8-.3-.6-.5-1.2-.7-1.9-.5-1.4-.8-2.9-1.3-4.3-.3-.8-.8-1.6-1.4-1.2-.5.4-.6,1.3-.5,2.2,0,.6.3,1.1.4,1.6Z"/>
              </g>
              <g>
                <path class="st34" d="M182.5,96.7c0,.4-.2.7-.4,1s-.4.6-.6.9c-.4.4-.8.9-1.3,1.2-2.4,1.6-5.9,2.7-7.1,5.2-.2.4-.4.9-.4,1.4,0,.5,0,1.1.2,1.6.5,1,.8,2,1,3.1,0,.3,0,.5.1.8,0,.3,0,.5,0,.8.1,2-.9,3.8-1.3,5.8-.4,2.3,1.6,3.5,3,4.9.2.3.3.6.4.9.6,1.8.4,3.9,1.8,5.4.2.2.5.4.8.6,1.1.7,2.4,1.2,3.5,2,.8.5,1.3,1.1,1.7,2,.1.3.3.7.3,1.1.1.4.3.8.3,1.2,0-.5,0-.9,0-1.4,0-.5-.2-1-.2-1.5-.6-3.1-.9-6.1-1.5-9.1,0-.5-.2-1-.3-1.5-.1-.5-.2-.9-.3-1.4,0-.5-.1-.9-.1-1.4,0-.5-.1-.9-.2-1.4-.2-1.4-.3-2.8-.3-4.3s0-1,0-1.4c0-2.5-.6-5.1-.2-7.7.4-2,1.1-3.9,1.1-6,0-.4,0-.7,0-1.1,0-.4,0-.7,0-1.1,0-.3,0-.5-.1-.5Z"/>
                <path class="st7" d="M180.8,105.4c-1.2.4-2.1,1.1-2.7,2-.3.5-.5,1-.7,1.5,0,1-.2,2-.2,3,0,.2,0,.5,0,.7,0,.2,0,.5,0,.7-.2,2.9,0,5.8,1.6,8.3.2.3.4.6.6.9.6.9,1.3,1.7,2.2,2.3.3.2.6.3.9.4.3.1.6.2.9.3-.2-.5-.4-1-.5-1.5-.2-.5-.3-1-.5-1.5,0-.3-.2-.7-.3-1-.2-.7-.3-1.3-.4-2,0-.4-.1-.7-.2-1.1-.1-.7-.2-1.5-.3-2.2,0-.5-.1-1-.1-1.5,0-.8,0-1.7,0-2.5,0-.3,0-.7,0-1,0-1.4,0-2.8,0-4.2.2-1.1.3-1.7,0-1.8Z"/>
              </g>
              <path class="st37" d="M108.9,138.1c1,3.3,2.3,6.4,3.7,9.5.7,0,1.3,0,2,0-.4-.8-.7-1.5-1.1-2.3-2.1-4.8-3.7-9.9-4.8-15.1-1.4-6.9-1.6-14.1-1-21.2.9-10.5,4.1-20.9,10.4-29.5,2.1-2.9,4.6-5.3,7.3-7.5,4.5-3.5,9.5-6.5,14.9-8.5,5.9-2.2,12.3-3.2,18.7-2.8,6.1.4,12.1,2.4,16.6,6.5,4.2,3.8,6.7,9.1,7.5,14.6.4,2.8.4,5.8,0,8.6-.3,2.2-.9,4.3-1.4,6.4-.6,2.7-.9,5.4-1.1,8.2-.3,4.6-.1,9.3.4,13.9.3,3.1.8,6.3,1.6,9.4.5,2,1,3.9,1.4,5.9.7,4.2.5,8.8-.3,13-.3,1.8-.8,3.5-1.4,5.1.6,0,1.3,0,1.9,0,1.3-4,1.9-8.2,1.9-12.4,0-1.8,0-3.7-.3-5.5-.3-2.1-.9-4.1-1.3-6.1-1.5-6-2.1-12.2-2.1-18.4,0-1.6,0-3.2.1-4.8.2-2.8.5-5.5,1.1-8.2.5-2.3,1.1-4.5,1.4-6.8.7-5.9,0-12-2.8-17.3-2.8-5.5-7.7-9.6-13.4-11.8-5.9-2.3-12.4-2.4-18.6-1.7-6.7.8-13,3.2-18.8,6.6-3.9,2.3-7.6,5-10.8,8.1-1.3,1.3-2.4,2.7-3.5,4.1-1.8,2.4-3.4,4.9-4.7,7.6-2.5,4.9-4.2,10.2-5.2,15.6-.9,4.5-1.3,9-1.3,13.6,0,3.2,0,6.3.4,9.5.5,4.6,1.5,9.1,2.8,13.4Z"/>
              <path class="st2" d="M123.2,144.5c.3,0,.6,0,.8-.2.3,0,.5-.2.7-.5.2-.2.4-.4.5-.7.1-.3.2-.5.2-.8,0-.2,0-.4,0-.6-.1-.4-.3-.7-.6-1-.4-.4-1-.6-1.6-.6-.3,0-.6,0-.8.2-.3,0-.5.2-.7.5-.2.2-.4.4-.5.7-.1.3-.2.5-.2.8,0,.2,0,.4,0,.6.1.4.3.7.6,1,.4.4,1,.6,1.6.6h0Z"/>
              <path class="st7" d="M143.4,106.3c.5,0,.9-.4.9-.9,0-.5-.4-.9-.9-.9s-.9.4-.9.9c0,.5.4.9.9.9h0Z"/>
              <path class="st7" d="M146.7,111.9c.5,0,.9-.4.9-.9,0-.5-.4-.9-.9-.9s-.9.4-.9.9c0,.5.4.9.9.9h0Z"/>
              <path class="st7" d="M148.2,105.3c.5,0,.9-.4.9-.9,0-.5-.4-.9-.9-.9s-.9.4-.9.9c0,.5.4.9.9.9h0Z"/>
              <path class="st2" d="M124.1,112.7c.3,0,.6,0,.8-.2.3,0,.5-.2.7-.5.2-.2.4-.4.5-.7.1-.3.2-.5.2-.8,0-.2,0-.4,0-.6-.1-.4-.3-.7-.6-1-.4-.4-1-.6-1.6-.6-.3,0-.6,0-.8.2-.3,0-.5.2-.7.5-.2.2-.4.4-.5.7-.1.3-.2.5-.2.8,0,.2,0,.4,0,.6.1.4.3.7.6,1,.4.4,1,.6,1.6.6h0Z"/>
              <path class="st2" d="M164.9,151c0,0,0-.1,0-.2,0-.2,0-.4,0-.6-.1-.4-.3-.7-.6-1-.4-.4-1-.6-1.6-.6-.3,0-.6,0-.8.2-.3,0-.5.2-.7.5-.2.2-.4.4-.5.7-.1.2-.2.5-.2.8,1.5,0,2.9.2,4.4.3Z"/>
              <path class="st2" d="M177.6,144c.3,0,.6,0,.8-.2.3,0,.5-.2.7-.5.2-.2.4-.4.5-.7.1-.3.2-.5.2-.8v-.6c-.2-.4-.4-.7-.6-1-.4-.4-1-.6-1.6-.6-.3,0-.6,0-.8.2-.3,0-.5.2-.7.5-.2.2-.4.4-.5.7-.1.3-.2.5-.2.8,0,.2,0,.4,0,.6.1.4.3.7.6,1,.4.4,1,.6,1.6.6h0Z"/>
              <path class="st2" d="M134.6,104.5c.4,0,.9-.2,1.2-.5.2-.2.3-.3.4-.6.1-.2.2-.4.2-.7,0-.5-.2-.9-.5-1.2-.3-.3-.8-.5-1.2-.5s-.9.2-1.2.5c-.2.2-.3.3-.4.6-.1.2-.2.4-.2.7,0,.5.2.9.5,1.2.3.3.8.5,1.2.5h0Z"/>
              <path class="st2" d="M138.4,115c.4,0,.9-.2,1.2-.5.2-.2.3-.3.4-.6.1-.2.2-.4.2-.7,0-.5-.2-.9-.5-1.2-.3-.3-.8-.5-1.2-.5s-.9.2-1.2.5c-.2.2-.3.3-.4.6-.1.2-.2.4-.2.7,0,.5.2.9.5,1.2.3.3.8.5,1.2.5h0Z"/>
              <g>
                <path class="st7" d="M178.7,90.8c-.3,0-.5-.3-.5-.6,0-.2,0-.3,0-.5,0-.2,0-.4,0-.5.1-.4.2-.8.3-1.3,0-.4.2-.9.3-1.3,0-.2,0-.4,0-.7,0-.2,0-.4,0-.7,0-.2,0-.4,0-.7,0-.2,0-.4,0-.7,0-.8-.1-1.6-.3-2.4-.2-.8-.4-1.6-.7-2.3-.1-.3-.3-.6-.4-1-.1-.4-.2-.7-.1-.9.2-.4.4-.5.7-.4.2,0,.3.1.5.3,0,0,.1.2.2.2,0,0,.1.2.2.3,1.2,2.3,1.7,4.9,1.6,7.5,0,1.3-.2,2.6-.6,3.8-.1.4-.3.9-.6,1.2-.3.3-.6.6-.9.6,0,0,0,0,0,0Z"/>
                <path class="st7" d="M178.7,90.6c-.3,0-.4-.3-.3-.7,0-.4.2-.8.2-1.1.2-1,.4-2,.6-3,0-.5,0-1,0-1.6,0-.5,0-1,0-1.5-.1-1-.4-2-.7-3v-.3c0,0-.2-.2-.2-.2,0-.2-.1-.3-.2-.5,0-.2-.2-.3-.2-.5,0-.2-.1-.4-.1-.5,0-.3.3-.6.6-.5.4,0,.7.5.9.9.5,1,.9,2.2,1.2,3.3.1.6.2,1.1.3,1.7,0,.6,0,1.2,0,1.7,0,1.3-.2,2.6-.5,3.8-.1.4-.3.9-.5,1.3-.2.4-.6.7-.9.7-.2,0-.3.5,0,.5.3,0,.6-.2.9-.4.3-.3.5-.6.7-1,.2-.5.3-1,.4-1.6.1-.7.2-1.5.3-2.2,0-.7,0-1.5,0-2.2,0-.8-.2-1.5-.3-2.2-.1-.7-.3-1.4-.6-2-.2-.7-.5-1.4-.9-1.9,0,0-.1-.2-.2-.2,0,0-.1-.1-.2-.2,0,0-.1-.1-.2-.1,0,0-.1,0-.2,0-.3,0-.5,0-.7.1-.2.2-.3.5-.3.8,0,.2,0,.3.1.5,0,0,0,.2,0,.3,0,0,0,.2.1.3.5,1.1.8,2.2,1,3.3.1.6.2,1.2.2,1.7,0,.6,0,1.2,0,1.8,0,.6-.2,1.3-.3,2-.1.6-.3,1.3-.4,1.9,0,.4-.1.8,0,1.1,0,.3.2.5.6.6.2,0,.3-.4,0-.5Z"/>
              </g>
            </g>
            <g>
              <path class="st37" d="M157.9,87c0,.3,0,.6.2,1,.1.3.2.6.4.8.3.5.8.9,1.3,1.2.4.2.7.3,1.1.3.3,0,.6,0,.8-.1.3-.1.6-.3.9-.5.2-.2.4-.4.6-.6.3-.5.6-1,.7-1.6,0-.2,0-.5,0-.7-.1-.2-.3-.4-.5-.4-.2,0-.5,0-.7,0-.2.1-.4.3-.4.5,0,.2-.1.5-.2.7,0,0,0-.1,0-.2-.1.3-.2.5-.4.7,0,0,0-.1.1-.2-.1.2-.3.3-.4.4,0,0,.1,0,.2-.1-.1,0-.3.2-.4.2,0,0,.1,0,.2,0-.1,0-.3,0-.4.1,0,0,.2,0,.2,0-.1,0-.3,0-.4,0,0,0,.2,0,.2,0-.2,0-.3,0-.5-.1,0,0,.1,0,.2,0-.2,0-.4-.2-.5-.3,0,0,.1,0,.2.1-.2-.1-.3-.3-.5-.5,0,0,0,.1.1.2-.2-.2-.3-.4-.4-.6,0,0,0,.1,0,.2,0-.2-.2-.5-.2-.7,0,0,0,.2,0,.2,0,0,0,0,0,0,0-.2,0-.4-.3-.6-.2-.2-.4-.3-.6-.3-.2,0-.5,0-.6.3-.1.2-.3.4-.3.6h0Z"/>
              <path class="st34" d="M154.4,93.4c0,1.4-.9,2.6-2,3.3-1.7,1-4.2,1.1-5.9,0-1.6-1.1-2-3.6-.6-5,1.8-1.8,5.3-1.9,7.3-.4.8.5,1.2,1.3,1.2,2.2Z"/>
              <path class="st34" d="M167.3,93.3c0,.5,0,1,.3,1.4.7,1.5,2.6,2.4,4.1,2.5,1.5.1,3.1-.3,4.1-1.4,1-1.2,1.1-3.2,0-4.4-1.9-2.1-7.1-2.1-8.3.8-.1.3-.2.7-.2,1.1Z"/>
              <path class="st7" d="M148.7,92c-.5.9-1.3,1.7-1.7,2.7-.1.2,0,.5.2.6.2.1.5,0,.6-.2.5-1,1.2-1.7,1.7-2.7.1-.2,0-.5-.2-.6-.2-.1-.5,0-.6.2h0Z"/>
              <path class="st7" d="M151.7,92.1c-.5.9-1.3,1.7-1.7,2.7-.1.2,0,.5.2.6.2.1.5,0,.6-.2.5-1,1.2-1.7,1.7-2.7.1-.2,0-.5-.2-.6-.2-.1-.5,0-.6.2h0Z"/>
              <path class="st7" d="M171,91.7c-.5.9-1.3,1.7-1.7,2.7-.1.2,0,.5.2.6.2.1.5,0,.6-.2.5-1,1.2-1.7,1.7-2.7.1-.2,0-.5-.2-.6-.2-.1-.5,0-.6.2h0Z"/>
              <path class="st7" d="M174,91.8c-.5.9-1.3,1.7-1.7,2.7-.1.2,0,.5.2.6.2.1.5,0,.6-.2.5-1,1.2-1.7,1.7-2.7.1-.2,0-.5-.2-.6-.2-.1-.5,0-.6.2h0Z"/>
              <path class="st37" d="M149,84.4c-.7,0-1.3.3-1.8.8-.5.5-.7,1.1-.7,1.8,0,1.4,1.1,2.5,2.5,2.5,0,0,0,0,0,0,1.4,0,2.5-1.2,2.5-2.5,0-1.4-1.2-2.5-2.5-2.5Z"/>
              <path class="st37" d="M171.7,84.1s0,0,0,0c-1.4,0-2.5,1.2-2.5,2.5,0,.7.3,1.3.8,1.8.5.5,1.1.7,1.8.7,0,0,0,0,0,0,.7,0,1.3-.3,1.8-.8.5-.5.7-1.1.7-1.8,0-1.4-1.1-2.5-2.5-2.5Z"/>
            </g>
          </g>
          <path class="st15" d="M158.5,115.5s36.8-3.5,52.2-29"/>
          <g>
            <g>
              <path class="st7" d="M324.2,136.3c-.5-.4-1,.6-1.2,1.3-.6,1.9-1.1,3.9-1.8,5.7-.7,1.7-1.5,3.3-2.5,4.9-.2.3-.4.7-.6,1.1-.2.4-.3.8-.2,1,.3.8,1.1.5,1.7-.4.7-1.1,1.4-2.3,2.1-3.5.6-1.2,1.2-2.5,1.7-3.7.5-1.3.9-2.6,1.2-3.9.2-.9.2-2-.3-2.5,0,0,0,0,0,0Z"/>
              <path class="st7" d="M324.1,136.5c-.6-.4-1,1.1-1.1,1.7-.3,1.1-.6,2.2-1,3.3-.3,1.1-.8,2.2-1.2,3.2-.5,1-1,2.1-1.6,3.1-.2.4-.4.7-.6,1-.2.3-.5.8-.5,1.1,0,.4.2.6.5.6.4,0,.7-.5,1-.9.7-1,1.3-2.1,1.9-3.2.6-1.1,1.1-2.2,1.5-3.4.5-1.3.9-2.6,1.3-3.9.3-.9.4-2.1-.1-2.6-.2-.1,0-.6.2-.5.5.4.6,1.3.5,2.2,0,.6-.3,1.1-.4,1.6-.2.7-.5,1.5-.7,2.2-.3.7-.5,1.5-.9,2.2-.3.7-.7,1.4-1,2.1-.3.7-.7,1.3-1.1,1.9-.4.6-.8,1.3-1.2,1.9-.5.6-1.2.9-1.6.5-.5-.5-.2-1.2.3-2,.7-1.1,1.4-2.3,1.9-3.5.3-.6.6-1.2.8-1.8.3-.6.5-1.2.7-1.9.5-1.4.8-2.9,1.3-4.3.3-.8.8-1.6,1.4-1.2.2.1,0,.6-.2.5Z"/>
            </g>
            <g>
              <path class="st4" d="M260.5,160.7c20.7-4.2,41.7-7.3,62.8-8.6,6.7-11.3,7.4-23.1,7.9-30.4.7-10.8,1.9-30.6-12.3-46.2-.4-.5-7.2-7.7-18.2-12.3-2.7-1.1-5.7-2.1-8.9-2.8-9-1.4-18.7-1.3-26.8,4.2-6.8,4.8-10.3,12.7-10.4,20.6,0,4.3.5,6.6,1.2,9.2.6,2.6,1.3,5.3,1.6,10.4.1,1.9.5,8.7-.8,17.2-1.2,8-2.5,9.3-2.8,15.2,0,1.2-.4,8.7,2,15.2,1,2.8,2.6,5.6,4.6,8.2Z"/>
              <path class="st14" d="M260.5,160.7c20.6-4.2,41.4-7.3,62.4-8.6,7.3-12.5,9.1-24.8,9.4-30.6.5-8.3,1-29.8-13.4-45.9-1-1.1-8-8.1-18.7-12.5-2.7-1.1-5.6-2-8.7-2.6-8.9-1.4-18.4-1.2-26.4,4.2-6.8,4.8-10.3,12.7-10.4,20.6,0,4.3.5,6.6,1.2,9.2.6,2.6,1.3,5.3,1.6,10.4.1,1.9.5,8.7-.8,17.2-1.2,8-2.5,9.3-2.8,15.2,0,1.2-.4,8.7,2,15.2,1,2.8,2.6,5.6,4.6,8.2Z"/>
              <path class="st2" d="M261.9,160.4c.5,0,1-.2,1.5-.3-1.4-1.7-2.6-3.5-3.6-5.5-1.3-2.5-2.1-5.3-2.6-8.1-.7-4.1-.9-8.5-.2-12.7.3-1.9.9-3.8,1.3-5.8.7-3,1.2-6,1.5-9.1.5-4.4.6-8.9.3-13.3-.2-2.6-.5-5.2-1-7.8-.4-2-1-4.1-1.3-6.1-.4-2.7-.5-5.6,0-8.3.7-5.2,2.9-10.3,6.6-14.1,4.2-4.3,10.2-6.3,16.1-6.8,3.1-.3,6.2-.1,9.3.2,3.2.4,6.4,1.2,9.4,2.3,5.2,2,10.2,4.8,14.6,8.3,2.7,2.2,5.1,4.5,7.2,7.3,6.1,8.3,9.2,18.5,10.1,28.7.6,6.8.3,13.7-1,20.5-1.5,7.7-4.3,15.4-8.5,22.3.5,0,1,0,1.5-.1,2.7-4.6,4.8-9.5,6.4-14.6,1.3-4.2,2.2-8.6,2.7-13,.3-3,.4-6.1.4-9.2,0-4.4-.5-8.8-1.3-13.2-1-5.2-2.6-10.3-5-15-1.3-2.6-2.9-5.1-4.6-7.5-1-1.4-2.1-2.7-3.4-3.9-3.1-3-6.7-5.7-10.5-7.9-5.6-3.3-11.8-5.6-18.2-6.4-6.2-.7-12.7-.4-18.6,2.1-2.7,1.1-5.2,2.7-7.3,4.8-1.9,1.9-3.5,4.1-4.6,6.6-2.4,5-3.2,10.7-2.5,16.3.3,2.2.9,4.4,1.4,6.6.6,2.6.9,5.3,1.1,8,0,1.6.1,3.1.1,4.7,0,6-.6,12.1-2,18-.5,1.9-1,3.9-1.3,5.9-.2,1.8-.3,3.5-.3,5.3,0,5.5.9,11.2,3.5,16.2.9,1.7,1.9,3.3,3.1,4.8Z"/>
              <g>
                <path class="st7" d="M313.8,76.4c-.6.5-.5,1-.4,1.2.5.6,1.2.9,1.7,1.4.5.5.9,1,1.4,1.4.2.2.3.6.9.3.4-.2.7-.5.9-.7.2-.3.2-.5.1-.7-.6-.9-1.2-1.7-2-2.4-.4-.4-.7-.7-1.1-1-.3-.2-.8-.2-1.5.3,0,0,0,0,0,0Z"/>
                <path class="st7" d="M313.8,76.5c-.6.6-.2,1,0,1.1.3.3.6.5,1,.8.7.5,1.3,1.2,1.8,1.8,0,.1.2.2.3.3,0,.1.2.3.4.2.2,0,.6-.3.8-.6.3-.3.2-.5,0-.7-.5-.8-1.1-1.5-1.8-2.1-.4-.4-.7-.7-1.1-1-.3-.2-.7-.4-1.4.2-.2.2-.3,0,0-.2.6-.5,1.1-.6,1.5-.5.2,0,.4.2.5.4.2.2.4.4.6.6.4.4.8.8,1.2,1.3.2.2.4.4.5.7.2.2.4.4.5.7,0,.3-.2.9-.8,1.3-.7.5-1.1.4-1.3.2-.6-.7-1.2-1.5-2-2.1-.4-.3-1-.6-1.3-1.1-.2-.3-.1-.8.5-1.4.2-.2.3,0,0,.2Z"/>
              </g>
              <g>
                <path class="st7" d="M320.2,84.6c-.4,0-.5.4-.5.9,0,.5.3,1,.5,1.5.1.3.3.6.4.9,0,.1.1.3.2.4,0,.1.1.3.2.4.1.3.3.6.4.9.1.3.3.6.4.9,0,.1.1.3.2.4l.2.5.2.5c0,.2.1.3.2.5.1.3.3.6.4.9.1.3.2.6.3.9.4,1.2.8,2.3,1.1,3.5.2.6.3,1.2.5,1.8l.2.9v.4c.1,0,.2.4.2.4,0,.2,0,.5.1.8,0,.3.1.6.2.9.1.6.3,1,.7,1.2.5.3.9.1,1.1-.2.1-.2.2-.4.2-.7,0-.3,0-.6,0-.9-.5-3.6-1.5-7.1-2.8-10.5-.7-1.7-1.4-3.4-2.2-5-.1-.3-.3-.5-.5-.8-.2-.3-.4-.5-.6-.7-.2-.2-.5-.4-.7-.5-.2-.1-.5-.2-.7-.2,0,0,0,0,0,0Z"/>
                <path class="st7" d="M320.3,84.9c-.4,0-.4.6-.2,1.1.2.5.5,1.2.7,1.5.7,1.3,1.3,2.7,1.9,4,.6,1.4,1.2,2.9,1.6,4.3.1.4.2.7.3,1.1l.3,1.1.3,1.1c0,.4.2.8.3,1.1,0,.3.1.5.2.8,0,.3.1.5.2.8,0,.2,0,.5.2.8,0,.3.2.5.3.7.3.4.8.4,1,.1.2-.2.3-.5.3-.8,0-.3,0-.7,0-1-.5-3.2-1.3-6.4-2.5-9.5-.6-1.7-1.3-3.4-2.2-5-.6-1.1-1.5-2.5-2.5-2.4-.3,0-.5-.6-.2-.6.4,0,.9.1,1.3.4.2.2.4.3.6.6.2.2.4.4.6.7.2.3.4.6.6,1,0,.2.2.3.3.5,0,.2.2.3.2.5.5.9.9,1.9,1.3,2.9.8,1.9,1.4,3.9,2,5.9l.2.7.2.7c0,.2.1.5.2.7v.7c.2.2.3.5.3.7,0,.2,0,.5.1.7,0,.5.2,1,.2,1.5,0,.1,0,.3,0,.4,0,.1,0,.3,0,.4,0,.2-.1.4-.2.6-.2.3-.5.6-.8.5-.9,0-1.3-1.1-1.5-2.2-.7-3.5-1.6-6.9-3-10.2-.8-1.8-1.8-3.6-2.6-5.4-.1-.3-.2-.5-.3-.8,0-.3-.1-.5-.1-.7,0-.5.2-.8.6-.9.3,0,.5.6.2.6Z"/>
              </g>
              <g>
                <path class="st7" d="M326.1,136.2c-.5-.4-1,.6-1.2,1.3-.6,1.9-1.1,3.9-1.8,5.7-.7,1.7-1.5,3.3-2.5,4.9-.2.3-.4.7-.6,1.1-.2.4-.3.8-.2,1,.3.8,1.1.5,1.7-.4.7-1.1,1.4-2.3,2.1-3.5.6-1.2,1.2-2.5,1.7-3.7.5-1.3.9-2.6,1.2-3.9.2-.9.2-2-.3-2.5,0,0,0,0,0,0Z"/>
                <path class="st7" d="M326,136.5c-.6-.4-1,1.1-1.1,1.7-.3,1.1-.6,2.2-1,3.3-.3,1.1-.8,2.2-1.2,3.2-.5,1-1,2.1-1.6,3.1-.2.4-.4.7-.6,1-.2.3-.5.8-.5,1.1,0,.4.2.6.5.6.4,0,.7-.5,1-.9.7-1,1.3-2.1,1.9-3.2.6-1.1,1.1-2.2,1.5-3.4.5-1.3.9-2.6,1.3-3.9.3-.9.4-2.1-.1-2.6-.2-.1,0-.6.2-.5.5.4.6,1.3.5,2.2,0,.6-.3,1.1-.4,1.6-.2.7-.5,1.5-.7,2.2-.3.7-.5,1.5-.9,2.2-.3.7-.7,1.4-1,2.1-.3.7-.7,1.3-1.1,1.9-.4.6-.8,1.3-1.2,1.9-.5.6-1.2.9-1.6.5-.5-.5-.2-1.2.3-2,.7-1.1,1.4-2.3,1.9-3.5.3-.6.6-1.2.8-1.8.3-.6.5-1.2.7-1.9.5-1.4.8-2.9,1.3-4.3.3-.8.8-1.6,1.4-1.2.2.1,0,.6-.2.5Z"/>
              </g>
              <g>
                <path class="st34" d="M257.5,96.7c0,.4.2.7.4,1s.4.6.6.9c.4.4.8.9,1.3,1.2,2.4,1.6,5.9,2.7,7.1,5.2.2.4.4.9.4,1.4,0,.5,0,1.1-.2,1.6-.5,1-.8,2-1,3.1,0,.3,0,.5-.1.8,0,.3,0,.5,0,.8-.1,2,.9,3.8,1.3,5.8.4,2.3-1.6,3.5-3,4.9-.2.3-.3.6-.4.9-.6,1.8-.4,3.9-1.8,5.4-.2.2-.5.4-.8.6-1.1.7-2.4,1.2-3.5,2-.8.5-1.3,1.1-1.7,2-.1.3-.3.7-.3,1.1-.1.4-.3.8-.3,1.2,0-.5,0-.9,0-1.4,0-.5.2-1,.2-1.5.6-3.1.9-6.1,1.5-9.1,0-.5.2-1,.3-1.5.1-.5.2-.9.3-1.4,0-.5.1-.9.1-1.4,0-.5.1-.9.2-1.4.2-1.4.3-2.8.3-4.3s0-1,0-1.4c0-2.5.6-5.1.2-7.7-.4-2-1.1-3.9-1.1-6,0-.4,0-.7,0-1.1,0-.4,0-.7,0-1.1,0-.3,0-.5.1-.5Z"/>
                <path class="st7" d="M259.2,105.4c1.2.4,2.1,1.1,2.7,2,.3.5.5,1,.7,1.5,0,1,.2,2,.2,3,0,.2,0,.5,0,.7,0,.2,0,.5,0,.7.2,2.9,0,5.8-1.6,8.3-.2.3-.4.6-.6.9-.6.9-1.3,1.7-2.2,2.3-.3.2-.6.3-.9.4-.3.1-.6.2-.9.3.2-.5.4-1,.5-1.5.2-.5.3-1,.5-1.5,0-.3.2-.7.3-1,.2-.7.3-1.3.4-2,0-.4.1-.7.2-1.1.1-.7.2-1.5.3-2.2,0-.5.1-1,.1-1.5,0-.8,0-1.7,0-2.5,0-.3,0-.7,0-1,0-1.4,0-2.8,0-4.2-.2-1.1-.3-1.7,0-1.8Z"/>
              </g>
              <path class="st37" d="M260.1,160.7c.6-.1,1.3-.3,1.9-.4-1.1-1.5-2.1-3-2.9-4.6-1.3-2.6-2.2-5.4-2.7-8.2-.8-4.2-1-8.8-.3-13,.3-2,.9-4,1.4-5.9.7-3.1,1.2-6.2,1.6-9.4.5-4.6.7-9.3.4-13.9-.2-2.7-.5-5.5-1.1-8.2-.5-2.1-1.1-4.2-1.4-6.4-.4-2.8-.5-5.8,0-8.6.8-5.6,3.3-10.8,7.5-14.6,4.5-4.1,10.6-6.2,16.6-6.5,6.3-.4,12.7.5,18.7,2.8,5.4,2,10.4,5,14.9,8.5,2.8,2.2,5.2,4.6,7.3,7.5,6.3,8.5,9.5,19,10.4,29.5.6,7.1.4,14.2-1,21.2-1,5.2-2.6,10.2-4.8,15.1-1,2.2-2.1,4.4-3.3,6.6.7,0,1.4,0,2.1-.1,2.4-4.4,4.4-9,5.9-13.8,1.4-4.4,2.3-8.9,2.8-13.4.3-3.1.5-6.3.4-9.5,0-4.6-.5-9.1-1.3-13.6-1-5.4-2.8-10.7-5.2-15.6-1.3-2.7-2.9-5.2-4.7-7.6-1.1-1.4-2.2-2.9-3.5-4.1-3.2-3.1-6.9-5.8-10.8-8.1-5.8-3.4-12.1-5.8-18.8-6.6-6.2-.7-12.7-.6-18.6,1.7-5.7,2.2-10.6,6.3-13.4,11.8-2.7,5.3-3.6,11.4-2.8,17.3.3,2.3.9,4.5,1.4,6.8.6,2.7,1,5.4,1.1,8.2,0,1.6.1,3.2.1,4.8,0,6.2-.6,12.4-2.1,18.4-.5,2-1.1,4-1.3,6.1-.3,1.8-.4,3.7-.3,5.5,0,5.8,1,11.6,3.7,16.7.7,1.3,1.5,2.6,2.4,3.8Z"/>
              <path class="st2" d="M265.8,155.6c-.4,0-.8-.2-1.1-.4-.1-.1-.3-.3-.3-.5,0-.2-.1-.4-.1-.6,0-.4.1-.8.4-1.1.3-.3.7-.4,1.1-.4s.8.2,1.1.4c.1.1.3.3.3.5,0,.2.1.4.1.6,0,.4-.1.8-.4,1.1-.3.3-.7.4-1.1.4h0Z"/>
              <path class="st2" d="M316.8,144.5c-.3,0-.6,0-.8-.2-.3,0-.5-.2-.7-.5-.2-.2-.4-.4-.5-.7-.1-.3-.2-.5-.2-.8,0-.2,0-.4,0-.6.1-.4.3-.7.6-1,.4-.4,1-.6,1.6-.6.3,0,.6,0,.8.2.3,0,.5.2.7.5.2.2.4.4.5.7.1.3.2.5.2.8,0,.2,0,.4,0,.6-.1.4-.3.7-.6,1-.4.4-1,.6-1.6.6h0Z"/>
              <path class="st7" d="M313.8,150.5c-.5,0-.9-.4-.9-.9,0-.5.4-.9.9-.9s.9.4.9.9c0,.5-.4.9-.9.9h0Z"/>
              <path class="st7" d="M296.6,106.3c-.5,0-.9-.4-.9-.9,0-.5.4-.9.9-.9s.9.4.9.9c0,.5-.4.9-.9.9h0Z"/>
              <path class="st7" d="M293.3,111.9c-.5,0-.9-.4-.9-.9,0-.5.4-.9.9-.9s.9.4.9.9c0,.5-.4.9-.9.9h0Z"/>
              <path class="st7" d="M291.8,105.3c-.5,0-.9-.4-.9-.9,0-.5.4-.9.9-.9s.9.4.9.9c0,.5-.4.9-.9.9h0Z"/>
              <path class="st2" d="M315.9,112.7c-.3,0-.6,0-.8-.2-.3,0-.5-.2-.7-.5-.2-.2-.4-.4-.5-.7-.1-.3-.2-.5-.2-.8,0-.2,0-.4,0-.6.1-.4.3-.7.6-1,.4-.4,1-.6,1.6-.6.3,0,.6,0,.8.2.3,0,.5.2.7.5.2.2.4.4.5.7.1.3.2.5.2.8,0,.2,0,.4,0,.6-.1.4-.3.7-.6,1-.4.4-1,.6-1.6.6h0Z"/>
              <path class="st2" d="M277.2,153c-.3,0-.6,0-.8-.2-.3,0-.5-.2-.7-.5-.2-.2-.4-.4-.5-.7-.1-.3-.2-.5-.2-.8v-.6c.2-.4.4-.7.6-1,.4-.4,1-.6,1.6-.6.3,0,.6,0,.8.2.3,0,.5.2.7.5.2.2.4.4.5.7.1.3.2.5.2.8,0,.2,0,.4,0,.6-.1.4-.3.7-.6,1-.4.4-1,.6-1.6.6h0Z"/>
              <path class="st2" d="M262.4,144c-.3,0-.6,0-.8-.2-.3,0-.5-.2-.7-.5-.2-.2-.4-.4-.5-.7-.1-.3-.2-.5-.2-.8v-.6c.2-.4.4-.7.6-1,.4-.4,1-.6,1.6-.6.3,0,.6,0,.8.2.3,0,.5.2.7.5.2.2.4.4.5.7.1.3.2.5.2.8,0,.2,0,.4,0,.6-.1.4-.3.7-.6,1-.4.4-1,.6-1.6.6h0Z"/>
              <path class="st2" d="M305.4,104.5c-.4,0-.9-.2-1.2-.5-.2-.2-.3-.3-.4-.6-.1-.2-.2-.4-.2-.7,0-.5.2-.9.5-1.2.3-.3.8-.5,1.2-.5s.9.2,1.2.5c.2.2.3.3.4.6.1.2.2.4.2.7,0,.5-.2.9-.5,1.2-.3.3-.8.5-1.2.5h0Z"/>
              <path class="st2" d="M301.6,115c-.4,0-.9-.2-1.2-.5-.2-.2-.3-.3-.4-.6-.1-.2-.2-.4-.2-.7,0-.5.2-.9.5-1.2.3-.3.8-.5,1.2-.5s.9.2,1.2.5c.2.2.3.3.4.6.1.2.2.4.2.7,0,.5-.2.9-.5,1.2-.3.3-.8.5-1.2.5h0Z"/>
              <g>
                <path class="st7" d="M261.3,90.8c.3,0,.5-.3.5-.6,0-.2,0-.3,0-.5,0-.2,0-.4,0-.5-.1-.4-.2-.8-.3-1.3,0-.4-.2-.9-.3-1.3,0-.2,0-.4,0-.7,0-.2,0-.4,0-.7,0-.2,0-.4,0-.7,0-.2,0-.4,0-.7,0-.8.1-1.6.3-2.4.2-.8.4-1.6.7-2.3.1-.3.3-.6.4-1,.1-.4.2-.7.1-.9-.2-.4-.4-.5-.7-.4-.2,0-.3.1-.5.3,0,0-.1.2-.2.2,0,0-.1.2-.2.3-1.2,2.3-1.7,4.9-1.6,7.5,0,1.3.2,2.6.6,3.8.1.4.3.9.6,1.2.3.3.6.6.9.6,0,0,0,0,0,0Z"/>
                <path class="st7" d="M261.3,90.6c.3,0,.4-.3.3-.7,0-.4-.2-.8-.2-1.1-.2-1-.4-2-.6-3,0-.5,0-1,0-1.6,0-.5,0-1,0-1.5.1-1,.4-2,.7-3v-.3c0,0,.2-.2.2-.2,0-.2.1-.3.2-.5,0-.2.2-.3.2-.5,0-.2.1-.4.1-.5,0-.3-.3-.6-.6-.5-.4,0-.7.5-.9.9-.5,1-.9,2.2-1.2,3.3-.1.6-.2,1.1-.3,1.7,0,.6,0,1.2,0,1.7,0,1.3.2,2.6.5,3.8.1.4.3.9.5,1.3.2.4.6.7.9.7.2,0,.3.5,0,.5-.3,0-.6-.2-.9-.4-.3-.3-.5-.6-.7-1-.2-.5-.3-1-.4-1.6-.1-.7-.2-1.5-.3-2.2,0-.7,0-1.5,0-2.2,0-.8.2-1.5.3-2.2.1-.7.3-1.4.6-2,.2-.7.5-1.4.9-1.9,0,0,.1-.2.2-.2,0,0,.1-.1.2-.2,0,0,.1-.1.2-.1,0,0,.1,0,.2,0,.3,0,.5,0,.7.1.2.2.3.5.3.8,0,.2,0,.3-.1.5,0,0,0,.2,0,.3,0,0,0,.2-.1.3-.5,1.1-.8,2.2-1,3.3-.1.6-.2,1.2-.2,1.7,0,.6,0,1.2,0,1.8,0,.6.2,1.3.3,2,.1.6.3,1.3.4,1.9,0,.4.1.8,0,1.1,0,.3-.2.5-.6.6-.2,0-.3-.4,0-.5Z"/>
              </g>
            </g>
            <g>
              <path class="st37" d="M282.1,87c0,.3,0,.6-.2,1-.1.3-.2.6-.4.8-.3.5-.8.9-1.3,1.2-.4.2-.7.3-1.1.3-.3,0-.6,0-.8-.1-.3-.1-.6-.3-.9-.5-.2-.2-.4-.4-.6-.6-.3-.5-.6-1-.7-1.6,0-.2,0-.5,0-.7.1-.2.3-.4.5-.4.2,0,.5,0,.7,0,.2.1.4.3.4.5,0,.2.1.5.2.7,0,0,0-.1,0-.2.1.3.2.5.4.7,0,0,0-.1-.1-.2.1.2.3.3.4.4,0,0-.1,0-.2-.1.1,0,.3.2.4.2,0,0-.1,0-.2,0,.1,0,.3,0,.4.1,0,0-.2,0-.2,0,.1,0,.3,0,.4,0,0,0-.2,0-.2,0,.2,0,.3,0,.5-.1,0,0-.1,0-.2,0,.2,0,.4-.2.5-.3,0,0-.1,0-.2.1.2-.1.3-.3.5-.5,0,0,0,.1-.1.2.2-.2.3-.4.4-.6,0,0,0,.1,0,.2,0-.2.2-.5.2-.7,0,0,0,.2,0,.2,0,0,0,0,0,0,0-.2,0-.4.3-.6.2-.2.4-.3.6-.3.2,0,.5,0,.6.3.1.2.3.4.3.6h0Z"/>
              <path class="st34" d="M285.6,93.4c0,1.4.9,2.6,2,3.3,1.7,1,4.2,1.1,5.9,0,1.6-1.1,2-3.6.6-5-1.8-1.8-5.3-1.9-7.3-.4-.8.5-1.2,1.3-1.2,2.2Z"/>
              <path class="st34" d="M272.7,93.3c0,.5,0,1-.3,1.4-.7,1.5-2.6,2.4-4.1,2.5-1.5.1-3.1-.3-4.1-1.4-1-1.2-1.1-3.2,0-4.4,1.9-2.1,7.1-2.1,8.3.8.1.3.2.7.2,1.1Z"/>
              <path class="st7" d="M291.3,92c.5.9,1.3,1.7,1.7,2.7.1.2,0,.5-.2.6-.2.1-.5,0-.6-.2-.5-1-1.2-1.7-1.7-2.7-.1-.2,0-.5.2-.6.2-.1.5,0,.6.2h0Z"/>
              <path class="st7" d="M288.3,92.1c.5.9,1.3,1.7,1.7,2.7.1.2,0,.5-.2.6-.2.1-.5,0-.6-.2-.5-1-1.2-1.7-1.7-2.7-.1-.2,0-.5.2-.6.2-.1.5,0,.6.2h0Z"/>
              <path class="st7" d="M269,91.7c.5.9,1.3,1.7,1.7,2.7.1.2,0,.5-.2.6-.2.1-.5,0-.6-.2-.5-1-1.2-1.7-1.7-2.7-.1-.2,0-.5.2-.6.2-.1.5,0,.6.2h0Z"/>
              <path class="st7" d="M266,91.8c.5.9,1.3,1.7,1.7,2.7.1.2,0,.5-.2.6-.2.1-.5,0-.6-.2-.5-1-1.2-1.7-1.7-2.7-.1-.2,0-.5.2-.6.2-.1.5,0,.6.2h0Z"/>
              <path class="st37" d="M291,84.4c.7,0,1.3.3,1.8.8.5.5.7,1.1.7,1.8,0,1.4-1.1,2.5-2.5,2.5,0,0,0,0,0,0-1.4,0-2.5-1.2-2.5-2.5,0-1.4,1.2-2.5,2.5-2.5Z"/>
              <path class="st37" d="M268.3,84.1s0,0,0,0c1.4,0,2.5,1.2,2.5,2.5,0,.7-.3,1.3-.8,1.8-.5.5-1.1.7-1.8.7,0,0,0,0,0,0-.7,0-1.3-.3-1.8-.8-.5-.5-.7-1.1-.7-1.8,0-1.4,1.1-2.5,2.5-2.5Z"/>
            </g>
          </g>
          <path class="st15" d="M281.5,115.5s-36.8-3.5-52.2-29"/>
        </g>
        <path class="st5" d="M95.6,137.7v19.8s84.2,33.5,248.9,0v-19.8s-124.3,31.3-248.9,0Z"/>
      </g>
      <g class="st8">
        <path d="M94.4,525.4h-1.9l-.9-9.2h-1.7l-1.5,9.2h-1.6l1.5-23.4h6v23.4ZM92.2,503h-1.4c-.1,0-.2,0-.2.2v11.3c0,.1,0,.2.2.2h1.4c.1,0,.2,0,.2-.2v-11.3c0-.1,0-.2-.2-.2Z"/>
        <path d="M111.2,514.3c.5.5.7,1.1.7,1.8l-.7,8.3c0,.4-.4.7-1.1.8-.7.1-1.4.2-2,.2h-4.5v-23.4h4.4c.8,0,1.5.2,2.2.6.7.4,1,.9,1,1.5v6.6l-1.4,2.7c.4.1.9.4,1.3.9ZM106.1,512.3h2.4c0,0,.1,0,.2-.1,0,0,0,0,0-.2l.3-7.9c0,0-.2-.1-.5-.1h-2.9v8.1c0,.2.1.3.4.3ZM109.1,521.8c0-.1,0-.2,0-.2v-6.8c0,0,0,0,0,0,0,0,0,0-.2,0l-2.5-.3c0,0-.1,0-.2,0,0,0-.1,0-.1.1v9h.4c1.8-.6,2.7-1.2,2.7-1.7Z"/>
        <path d="M117.7,524.7h-2.8v-22.8h2.1l.7,22.8Z"/>
        <path d="M122.4,524.7c-.5,0-.9-.2-1.2-.7-.3-.4-.5-1.1-.5-1.9v-18.4l1.2-1.8h7v4.9h-1.4l-1-3h-2.2c-.9,0-1.3.5-1.4,1.5l.6,16.4c0,.2,0,.3.2.4.2.1.3.2.5.2h2.4c.2,0,.3,0,.4-.1.1,0,.2-.2.2-.3l.3-6.4h-2v-1.9l3.7-.4v11.5h-6.9Z"/>
        <path d="M147.1,524.7h-7l-1.4-1.4.7-19.5c0-.5.2-.9.6-1.3s.9-.6,1.6-.6h.4s5.1.7,5.1.7l-.5,5.3h-1.5v-3.1c0-.2-.1-.3-.4-.3h-2c-.4,0-.7.2-.9.5-.2.3-.3.7-.3,1.1s0,.4,0,.4v15.4c0,0,0,0,0,0,0,0,0,0,.3,0h3.3c.3,0,.4,0,.4-.2v-2.5l.6-.4h1.1s0,5.5,0,5.5Z"/>
        <path d="M151.4,502h4.5l1.3.9v21.3l-2.1,1.2h-3.2l-1.9-1.4v-21l1.4-1.1ZM154.7,503.7h-1.7c-.2,0-.3,0-.3.3v18.9c0,.1,0,.2.3.2h1.4c.2,0,.3,0,.3-.2l.3-18.9c0-.2,0-.3-.3-.3Z"/>
        <path d="M169.1,525.4h-3.8l-3.4-21.5h-.1v21.5h-1.9v-23.4h3.8l3,21.5h.1l.7-21.5h1.9l-.3,23.4Z"/>
        <path d="M179.5,516.2v7.2c0,.6-.2,1-.7,1.4-.5.4-1,.5-1.6.5h-5l-.7-21.6c0-.5.2-1,.5-1.3s.7-.5,1.1-.5h6.6v1.4l-.6,3.6h-1.5v-3.2l-3.7.8.6,17.1c0,.2,0,.3.2.4.2.1.3.2.5.2h1.5c.2,0,.3,0,.4-.1.1,0,.2-.2.2-.3v-7.8l3.4.3v1.3l-1.3.6Z"/>
        <path d="M185.5,525.4h-1.9v-22.1l-.7-.4v-1h5.1c.8,0,1.5.2,2.1.5.6.3.9.7.9,1.1l-.3,9.1c0,.3-.1.7-.4,1.2-.3.5-.8.8-1.6,1l1.9,3.6.7,6.8h-2.4c0,0-.5-6.4-.5-6.4l-1.8-3.9h-1v10.3ZM186.1,512.9c0,0,.2,0,.3,0h1.7c.1,0,.2,0,.2-.2l.2-8.3c0-.3-.1-.6-.4-.8-.3-.2-.9-.3-1.7-.3-.3,0-.4.2-.4.4v9c0,0,0,.1.1.2Z"/>
        <path d="M201.5,525.4h-1.5l-1.2-8.8-2.6,1.3-.7,7.5h-2l1.5-23.4h5.2l1.4,23.4ZM198.3,503.3l-1.4.3c-.1,0-.2.2-.2.3v11.6c0,.1,0,.2.2.2l1.2-.2c.1,0,.2,0,.2-.2l.2-11.8c0-.1,0-.2-.2-.2Z"/>
        <path d="M210.7,502.4l.2,2.1h-2.9v20.9h-2.8l.7-20.3-2.4-.8.4-2.3,6.8.5Z"/>
        <path d="M215.7,511.5l4.2,1.1v10.8c0,.5-.2.9-.7,1.3-.5.4-.9.6-1.4.6h-4.7v-2.2h4.6l-.8-8.8-3.8-1v-9.8c0-.4.1-.7.4-1,.3-.3.6-.5.9-.5h5.5v1.6l-4.7.6.5,7.3Z"/>
        <path d="M228.9,526v-24.1l7.1.7v2l-4.5.4v5.6h4.5v1.9l-5,.6.7,12.9h-2.7Z"/>
        <path d="M240.9,525.4h-1.9v-22.1l-.7-.4v-1h5.1c.8,0,1.5.2,2.1.5.6.3.9.7.9,1.1l-.3,9.1c0,.3-.1.7-.4,1.2-.3.5-.8.8-1.6,1l1.9,3.6.7,6.8h-2.4c0,0-.5-6.4-.5-6.4l-1.8-3.9h-1v10.3ZM241.5,512.9c0,0,.2,0,.3,0h1.7c.1,0,.2,0,.2-.2l.2-8.3c0-.3-.1-.6-.4-.8-.3-.2-.9-.3-1.7-.3-.3,0-.4.2-.4.4v9c0,0,0,.1.1.2Z"/>
        <path d="M251.9,525.4c-.9,0-1.5-.1-1.9-.4-.4-.3-.5-.8-.5-1.4v-20.8c.5-.3,1.1-.5,1.9-.6s1.8-.2,3.1-.2,1.1.1,1.5.4c.4.3.6.7.6,1.1l-.2,21.8h-4.4ZM253.9,523.5l.3-.3.2-18.8c0-.1,0-.2-.3-.2h-2c0,0-.3,0-.3,0l-.2,19,2.3.2Z"/>
        <path d="M259.8,525.4v-23.4h2.4l2.4,14.3h.3l2.2-14.3h1.9l.8,23.4h-2.2v-17.7h-.2l-2.3,12.5-1.1.2-2.3-14.5h-.1v19.4h-1.7Z"/>
        <path d="M285.4,525.4h-1.9l-.9-9.2h-1.7l-1.5,9.2h-1.6l1.5-23.4h6v23.4ZM283.1,503h-1.4c-.1,0-.2,0-.2.2v11.3c0,.1,0,.2.2.2h1.4c.1,0,.2,0,.2-.2v-11.3c0-.1,0-.2-.2-.2Z"/>
        <path d="M294.9,525.4h-6.2v-23.4h3.2l-.7,20.7,3.7.6v2.1Z"/>
        <path d="M304.1,525.4h-6.7v-23.4h2.4v20l.5.8,3.7.4v2.3Z"/>
        <path d="M315.1,525.4c-.9,0-1.5-.1-1.9-.4-.4-.3-.5-.8-.5-1.4v-20.8c.5-.3,1.1-.5,1.9-.6.8-.1,1.8-.2,3.1-.2s1.1.1,1.5.4.6.7.6,1.1l-.2,21.8h-4.4ZM317.2,523.5l.3-.3.2-18.8c0-.1,0-.2-.3-.2h-2c0,0-.3,0-.3,0l-.2,19,2.3.2Z"/>
        <path d="M322.9,525.4l.8-23.4h6v2.9h-4.1v6.6h3.6v1.7l-3.4.6v11.7h-2.9Z"/>
        <path d="M344.7,525c-.3.3-.6.4-.9.4h-5.5v-22.7h2v20.4l2.9.2-.7-21.4h2.8v22.1c0,.3-.2.6-.5.9Z"/>
        <path d="M353.4,506.6l-.7-2.6-2,.2-.5,7.3,4.8.9-.5,11c0,.4-.3.9-.9,1.3-.6.4-1.1.7-1.6.7h-3.9l-.3-5.6h1.9v2.9s2.3.5,2.3.5l.5-8.8-4.5-1v-10.6l1.3-.8h5.2l-.2,4.7h-1.2Z"/>
      </g>
      <g>
        <path class="st30" d="M93.4,524.4h-1.9l-.9-9.2h-1.7l-1.5,9.2h-1.6l1.5-23.4h6v23.4ZM91.2,502h-1.4c-.1,0-.2,0-.2.2v11.3c0,.1,0,.2.2.2h1.4c.1,0,.2,0,.2-.2v-11.3c0-.1,0-.2-.2-.2Z"/>
        <path class="st30" d="M110.2,513.3c.5.5.7,1.1.7,1.8l-.7,8.3c0,.4-.4.7-1.1.8-.7.1-1.4.2-2,.2h-4.5v-23.4h4.4c.8,0,1.5.2,2.2.6.7.4,1,.9,1,1.5v6.6l-1.4,2.7c.4.1.9.4,1.3.9ZM105.1,511.3h2.4c0,0,.1,0,.2-.1,0,0,0,0,0-.2l.3-7.9c0,0-.2-.1-.5-.1h-2.9v8.1c0,.2.1.3.4.3ZM108.1,520.8c0-.1,0-.2,0-.2v-6.8c0,0,0,0,0,0,0,0,0,0-.2,0l-2.5-.3c0,0-.1,0-.2,0,0,0-.1,0-.1.1v9h.4c1.8-.6,2.7-1.2,2.7-1.7Z"/>
        <path class="st30" d="M116.7,523.7h-2.8v-22.8h2.1l.7,22.8Z"/>
        <path class="st30" d="M121.4,523.7c-.5,0-.9-.2-1.2-.7-.3-.4-.5-1.1-.5-1.9v-18.4l1.2-1.8h7v4.9h-1.4l-1-3h-2.2c-.9,0-1.3.5-1.4,1.5l.6,16.4c0,.2,0,.3.2.4.2.1.3.2.5.2h2.4c.2,0,.3,0,.4-.1.1,0,.2-.2.2-.3l.3-6.4h-2v-1.9l3.7-.4v11.5h-6.9Z"/>
        <path class="st30" d="M146.1,523.7h-7l-1.4-1.4.7-19.5c0-.5.2-.9.6-1.3s.9-.6,1.6-.6h.4s5.1.7,5.1.7l-.5,5.3h-1.5v-3.1c0-.2-.1-.3-.4-.3h-2c-.4,0-.7.2-.9.5-.2.3-.3.7-.3,1.1s0,.4,0,.4v15.4c0,0,0,0,0,0,0,0,0,0,.3,0h3.3c.3,0,.4,0,.4-.2v-2.5l.6-.4h1.1s0,5.5,0,5.5Z"/>
        <path class="st30" d="M150.4,501h4.5l1.3.9v21.3l-2.1,1.2h-3.2l-1.9-1.4v-21l1.4-1.1ZM153.7,502.7h-1.7c-.2,0-.3,0-.3.3v18.9c0,.1,0,.2.3.2h1.4c.2,0,.3,0,.3-.2l.3-18.9c0-.2,0-.3-.3-.3Z"/>
        <path class="st30" d="M168.1,524.4h-3.8l-3.4-21.5h-.1v21.5h-1.9v-23.4h3.8l3,21.5h.1l.7-21.5h1.9l-.3,23.4Z"/>
        <path class="st30" d="M178.5,515.2v7.2c0,.6-.2,1-.7,1.4-.5.4-1,.5-1.6.5h-5l-.7-21.6c0-.5.2-1,.5-1.3s.7-.5,1.1-.5h6.6v1.4l-.6,3.6h-1.5v-3.2l-3.7.8.6,17.1c0,.2,0,.3.2.4.2.1.3.2.5.2h1.5c.2,0,.3,0,.4-.1.1,0,.2-.2.2-.3v-7.8l3.4.3v1.3l-1.3.6Z"/>
        <path class="st30" d="M184.5,524.4h-1.9v-22.1l-.7-.4v-1h5.1c.8,0,1.5.2,2.1.5.6.3.9.7.9,1.1l-.3,9.1c0,.3-.1.7-.4,1.2-.3.5-.8.8-1.6,1l1.9,3.6.7,6.8h-2.4c0,0-.5-6.4-.5-6.4l-1.8-3.9h-1v10.3ZM185.1,511.9c0,0,.2,0,.3,0h1.7c.1,0,.2,0,.2-.2l.2-8.3c0-.3-.1-.6-.4-.8-.3-.2-.9-.3-1.7-.3-.3,0-.4.2-.4.4v9c0,0,0,.1.1.2Z"/>
        <path class="st30" d="M200.5,524.4h-1.5l-1.2-8.8-2.6,1.3-.7,7.5h-2l1.5-23.4h5.2l1.4,23.4ZM197.3,502.3l-1.4.3c-.1,0-.2.2-.2.3v11.6c0,.1,0,.2.2.2l1.2-.2c.1,0,.2,0,.2-.2l.2-11.8c0-.1,0-.2-.2-.2Z"/>
        <path class="st30" d="M209.7,501.4l.2,2.1h-2.9v20.9h-2.8l.7-20.3-2.4-.8.4-2.3,6.8.5Z"/>
        <path class="st30" d="M214.7,510.5l4.2,1.1v10.8c0,.5-.2.9-.7,1.3-.5.4-.9.6-1.4.6h-4.7v-2.2h4.6l-.8-8.8-3.8-1v-9.8c0-.4.1-.7.4-1,.3-.3.6-.5.9-.5h5.5v1.6l-4.7.6.5,7.3Z"/>
        <path class="st30" d="M227.9,525v-24.1l7.1.7v2l-4.5.4v5.6h4.5v1.9l-5,.6.7,12.9h-2.7Z"/>
        <path class="st30" d="M239.9,524.4h-1.9v-22.1l-.7-.4v-1h5.1c.8,0,1.5.2,2.1.5.6.3.9.7.9,1.1l-.3,9.1c0,.3-.1.7-.4,1.2-.3.5-.8.8-1.6,1l1.9,3.6.7,6.8h-2.4c0,0-.5-6.4-.5-6.4l-1.8-3.9h-1v10.3ZM240.5,511.9c0,0,.2,0,.3,0h1.7c.1,0,.2,0,.2-.2l.2-8.3c0-.3-.1-.6-.4-.8-.3-.2-.9-.3-1.7-.3-.3,0-.4.2-.4.4v9c0,0,0,.1.1.2Z"/>
        <path class="st30" d="M250.9,524.4c-.9,0-1.5-.1-1.9-.4-.4-.3-.5-.8-.5-1.4v-20.8c.5-.3,1.1-.5,1.9-.6s1.8-.2,3.1-.2,1.1.1,1.5.4c.4.3.6.7.6,1.1l-.2,21.8h-4.4ZM252.9,522.5l.3-.3.2-18.8c0-.1,0-.2-.3-.2h-2c0,0-.3,0-.3,0l-.2,19,2.3.2Z"/>
        <path class="st30" d="M258.8,524.4v-23.4h2.4l2.4,14.3h.3l2.2-14.3h1.9l.8,23.4h-2.2v-17.7h-.2l-2.3,12.5-1.1.2-2.3-14.5h-.1v19.4h-1.7Z"/>
        <path class="st30" d="M284.4,524.4h-1.9l-.9-9.2h-1.7l-1.5,9.2h-1.6l1.5-23.4h6v23.4ZM282.1,502h-1.4c-.1,0-.2,0-.2.2v11.3c0,.1,0,.2.2.2h1.4c.1,0,.2,0,.2-.2v-11.3c0-.1,0-.2-.2-.2Z"/>
        <path class="st30" d="M293.9,524.4h-6.2v-23.4h3.2l-.7,20.7,3.7.6v2.1Z"/>
        <path class="st30" d="M303.1,524.4h-6.7v-23.4h2.4v20l.5.8,3.7.4v2.3Z"/>
        <path class="st30" d="M314.1,524.4c-.9,0-1.5-.1-1.9-.4-.4-.3-.5-.8-.5-1.4v-20.8c.5-.3,1.1-.5,1.9-.6.8-.1,1.8-.2,3.1-.2s1.1.1,1.5.4.6.7.6,1.1l-.2,21.8h-4.4ZM316.2,522.5l.3-.3.2-18.8c0-.1,0-.2-.3-.2h-2c0,0-.3,0-.3,0l-.2,19,2.3.2Z"/>
        <path class="st30" d="M321.9,524.4l.8-23.4h6v2.9h-4.1v6.6h3.6v1.7l-3.4.6v11.7h-2.9Z"/>
        <path class="st30" d="M343.7,524c-.3.3-.6.4-.9.4h-5.5v-22.7h2v20.4l2.9.2-.7-21.4h2.8v22.1c0,.3-.2.6-.5.9Z"/>
        <path class="st30" d="M352.4,505.6l-.7-2.6-2,.2-.5,7.3,4.8.9-.5,11c0,.4-.3.9-.9,1.3-.6.4-1.1.7-1.6.7h-3.9l-.3-5.6h1.9v2.9s2.3.5,2.3.5l.5-8.8-4.5-1v-10.6l1.3-.8h5.2l-.2,4.7h-1.2Z"/>
      </g>
    </g>
    <g class="st8">
      <path d="M174.5,235.5c.1-.3.2-.4.4-.4s0,0,.1,0c.1.2,1.2,3.1,3.2,8.7,2.1,5.9,3.3,9.3,3.7,10.2.6,1.2,1,2.2,1.1,2.8.1.4.3.7.4.8.2.2.4.3.7.3.3,0,.6.1.6.3,0,.1.1.4.2.9v.3c0,.6,0,.9-.3,1-.1,0-.2.2-.2.4,0,.3.1.8.4,1.5.4,1.1.6,1.7.6,1.9s-.3.3-.9.6c-.7.3-1.1.4-1.3.4h0s-.3-.9-.9-2.5c-.2-.6-.5-1.4-.9-2.5-.8,0-2.5-.2-5-.3-2.8-.2-4.8-.3-6-.3h-.4c-.2,0-.7,0-1.3,0-.2.6-.7,1.7-1.3,3.5-.8,2.3-1.3,3.5-1.4,3.5h0c-.1,0-.5-.1-1.2-.4-.8-.3-1.2-.5-1.2-.5.3-.9.7-2,1.1-3.1.8-1.9,1.1-3,1.1-3.2s-.3-.2-.9-.2-.7,0-.7-.2c0-.1-.1-.6-.1-1.3v-1.5c.3,0,.8,0,1.4.2.6.1,1.1.2,1.4.2.2-.5.5-1.3.9-2.3,2.3-6.1,4.2-11.4,5.6-15.9.6-1.7.9-2.7,1.1-3.1ZM178.7,252.5c-1.3-3.6-2.4-6.6-3.5-9.1,0-.2-.2-.3-.2-.3s-.2.4-.5,1.2c-.2.9-1.1,3.2-2.5,6.9-1.3,3.4-1.9,5.2-1.9,5.6s1.3.2,4,.4c3,.2,4.7.3,5.2.4.3,0,.7,0,1.3.2-.3-.9-.9-2.7-1.8-5.3Z"/>
      <path d="M210.6,237.9c.7-.2,1.5-.4,2.5-.4s1.9.1,2.4.4c.6.2,1.2.7,1.7,1.3.5.6.9,1.3,1.1,2,.2.6.2,2.3.2,5s-.1,6.7-.3,11.2c0,1.3-.2,3.3-.3,6-.2,0-.7,0-1.4,0h-.4c-.6,0-.9,0-.9-.3s.1-2.8.4-7.8c.3-5,.4-8.2.4-9.7s-.1-3-.4-3.8c-.2-.7-.6-1.2-1-1.5-.3-.2-.8-.3-1.3-.3-1.9,0-4.2,1.1-6.9,3.3-2.7,2.1-4.8,4.5-6.1,7.1-.2.4-.3.8-.4.9,0,.2-.1.5-.2.9,0,.4,0,.9,0,1.6,0,1.2,0,2.2,0,3.1,0,1.2,0,2.9,0,5.2h-2.2c0-.3-.1-1-.2-2,0-.7-.2-4.6-.2-11.7,0-2.1,0-5.3,0-9.6h2.6v7.4c.2-.2.6-.7,1.2-1.3,3-3.5,6.2-5.9,9.6-7.1Z"/>
      <path d="M226.1,240.9c.9-.3,1.9-.5,3-.5s2.3.2,3.3.6c1,.4,1.8,1,2.4,1.7.5.6.7,1.3.7,2s-.2,1.4-.7,2.2c-.6,1.1-1.8,2.2-3.6,3.3-1.8,1.1-3.8,2.1-6.1,2.9-.8.3-1.4.5-1.6.6-.2.1-.3.3-.3.6v.3c0,.5.4,1.3,1,2.6.6,1.3,1.3,2.2,2.2,2.8.8.5,2,.7,3.3.7s1.5,0,2-.2c.5-.1,1.1-.4,2-.8,1.4-.7,2.5-1.4,3.4-2.1.3-.3.8-.7,1.4-1.3.4.4,1,1,1.8,1.8-.3.3-.9.8-1.5,1.4-.9.9-2.1,1.6-3.4,2.3-1.3.7-2.5,1.2-3.6,1.4-.7.2-1.4.2-2.1.2-1.7,0-3.2-.4-4.6-1.3-1.4-.9-2.4-2.1-3.3-3.7-1-1.9-1.5-4.2-1.5-6.8v-.5c0-2.1.2-3.7.7-4.9.4-1.1,1.1-2.1,2.2-3.2,1-1.1,2-1.8,3-2.1ZM231.4,243.5c-.7-.3-1.5-.5-2.3-.5-1.5,0-2.9.6-4.1,1.8-.5.5-1,1.3-1.4,2.4-.4,1-.6,1.9-.6,2.6s.2.9.5.9,1.5-.3,3.1-1c1.6-.7,2.8-1.3,3.6-1.9.8-.5,1.4-1.1,1.9-1.7.5-.6.8-1.1.8-1.5s0-.1,0-.2c-.1-.2-.6-.5-1.4-.9Z"/>
      <path d="M270.5,238.1c.3,0,.6-.1.9-.1,1.1,0,2.1.5,2.9,1.5.9,1,1.5,2.4,2,4.2.3,1,.4,2.7.4,5.3s0,2.7-.2,3.9c0,.5-.1.9-.1,1.1,0,.4.2.7.7.9.9.5,1.3.9,1.3,1.1s-.1.4-.4.9c-.4.7-.7,1-.9,1s-.4-.1-.7-.4c-.3-.3-.5-.4-.6-.4-.2,0-.4.4-.6,1.1-.4,1.4-1.3,2.8-2.5,4.1-1.3,1.3-2.6,2.1-3.9,2.5-.4.1-1.1.2-1.9.2-1.5,0-2.9-.2-4.2-.7-1.2-.6-2.2-1.3-2.9-2.2-.8-.9-1.5-2.2-2-3.9-.1-.3-.2-.7-.4-1.3-.2.3-.6.8-1.2,1.5-.9,1.1-2,2-3.3,2.7-1.3.7-2.6,1-4,1s-.8,0-1.5-.2c-1-.2-1.9-.6-2.8-1.3-.9-.7-1.5-1.4-1.9-2.2-.3-.6-.5-1.1-.6-1.5,0-.4-.1-1.2-.1-2.2v-1.1c0-1.8.2-3.4.4-4.8.3-1.4.8-3.1,1.7-5.2.7-1.7,1.1-2.7,1.4-2.8,0,0,.2,0,.2,0s.4.1.9.4c.3.1.6.3,1.1.6-.2.4-.5,1.2-.9,2.3-1.5,3.5-2.2,6.7-2.2,9.8v.4c0,1.4.1,2.5.4,3.1.3.7.9,1.2,1.7,1.6.8.4,1.5.6,2.3.6s1.8-.2,2.8-.7c2.6-1.3,4.3-4.2,4.9-8.6,0-.5.2-1.2.4-2.1.1,0,.4,0,.8.2.6.1,1,.2,1.2.2s.4,1.2.5,3.5c.2,3.5.7,6.1,1.6,7.7.9,1.6,2.3,2.5,4.2,2.9.7.1,1.2.2,1.5.2,1.4,0,2.6-.5,3.6-1.5.6-.6,1.1-1.4,1.8-2.6.6-1.2.9-2,.9-2.5s-.4-1-1.2-1.7c-.8-.8-1.5-1.8-2.2-2.8-1.6-2.4-2.4-4.9-2.4-7.6s.3-2.7.8-3.7c.6-1,1.3-1.7,2.3-2ZM272.4,241.2c-.3-.3-.6-.5-1-.5s-.6.1-.8.4c-.3.4-.5,1.3-.5,2.9s0,1.7.2,2.3c.3.9.7,1.9,1.3,3,.6,1.1,1.1,1.9,1.6,2.3.2.2.5.4.8.8,0-.3,0-.9.2-1.8,0-.6,0-1,0-1.4,0-1.6-.2-3.2-.5-4.8-.4-1.6-.8-2.7-1.3-3.3Z"/>
    </g>
    <g>
      <path class="st30" d="M173.5,234.5c.1-.3.2-.4.4-.4s0,0,.1,0c.1.2,1.2,3.1,3.2,8.7,2.1,5.9,3.3,9.3,3.7,10.2.6,1.2,1,2.2,1.1,2.8.1.4.3.7.4.8.2.2.4.3.7.3.3,0,.6.1.6.3,0,.1.1.4.2.9v.3c0,.6,0,.9-.3,1-.1,0-.2.2-.2.4,0,.3.1.8.4,1.5.4,1.1.6,1.7.6,1.9s-.3.3-.9.6c-.7.3-1.1.4-1.3.4h0s-.3-.9-.9-2.5c-.2-.6-.5-1.4-.9-2.5-.8,0-2.5-.2-5-.3-2.8-.2-4.8-.3-6-.3h-.4c-.2,0-.7,0-1.3,0-.2.6-.7,1.7-1.3,3.5-.8,2.3-1.3,3.5-1.4,3.5h0c-.1,0-.5-.1-1.2-.4-.8-.3-1.2-.5-1.2-.5.3-.9.7-2,1.1-3.1.8-1.9,1.1-3,1.1-3.2s-.3-.2-.9-.2-.7,0-.7-.2c0-.1-.1-.6-.1-1.3v-1.5c.3,0,.8,0,1.4.2.6.1,1.1.2,1.4.2.2-.5.5-1.3.9-2.3,2.3-6.1,4.2-11.4,5.6-15.9.6-1.7.9-2.7,1.1-3.1ZM177.7,251.5c-1.3-3.6-2.4-6.6-3.5-9.1,0-.2-.2-.3-.2-.3s-.2.4-.5,1.2c-.2.9-1.1,3.2-2.5,6.9-1.3,3.4-1.9,5.2-1.9,5.6s1.3.2,4,.4c3,.2,4.7.3,5.2.4.3,0,.7,0,1.3.2-.3-.9-.9-2.7-1.8-5.3Z"/>
      <path class="st30" d="M209.6,236.9c.7-.2,1.5-.4,2.5-.4s1.9.1,2.4.4c.6.2,1.2.7,1.7,1.3.5.6.9,1.3,1.1,2,.2.6.2,2.3.2,5s-.1,6.7-.3,11.2c0,1.3-.2,3.3-.3,6-.2,0-.7,0-1.4,0h-.4c-.6,0-.9,0-.9-.3s.1-2.8.4-7.8c.3-5,.4-8.2.4-9.7s-.1-3-.4-3.8c-.2-.7-.6-1.2-1-1.5-.3-.2-.8-.3-1.3-.3-1.9,0-4.2,1.1-6.9,3.3-2.7,2.1-4.8,4.5-6.1,7.1-.2.4-.3.8-.4.9,0,.2-.1.5-.2.9,0,.4,0,.9,0,1.6,0,1.2,0,2.2,0,3.1,0,1.2,0,2.9,0,5.2h-2.2c0-.3-.1-1-.2-2,0-.7-.2-4.6-.2-11.7,0-2.1,0-5.3,0-9.6h2.6v7.4c.2-.2.6-.7,1.2-1.3,3-3.5,6.2-5.9,9.6-7.1Z"/>
      <path class="st30" d="M225.1,239.9c.9-.3,1.9-.5,3-.5s2.3.2,3.3.6c1,.4,1.8,1,2.4,1.7.5.6.7,1.3.7,2s-.2,1.4-.7,2.2c-.6,1.1-1.8,2.2-3.6,3.3-1.8,1.1-3.8,2.1-6.1,2.9-.8.3-1.4.5-1.6.6-.2.1-.3.3-.3.6v.3c0,.5.4,1.3,1,2.6.6,1.3,1.3,2.2,2.2,2.8.8.5,2,.7,3.3.7s1.5,0,2-.2c.5-.1,1.1-.4,2-.8,1.4-.7,2.5-1.4,3.4-2.1.3-.3.8-.7,1.4-1.3.4.4,1,1,1.8,1.8-.3.3-.9.8-1.5,1.4-.9.9-2.1,1.6-3.4,2.3-1.3.7-2.5,1.2-3.6,1.4-.7.2-1.4.2-2.1.2-1.7,0-3.2-.4-4.6-1.3-1.4-.9-2.4-2.1-3.3-3.7-1-1.9-1.5-4.2-1.5-6.8v-.5c0-2.1.2-3.7.7-4.9.4-1.1,1.1-2.1,2.2-3.2,1-1.1,2-1.8,3-2.1ZM230.4,242.5c-.7-.3-1.5-.5-2.3-.5-1.5,0-2.9.6-4.1,1.8-.5.5-1,1.3-1.4,2.4-.4,1-.6,1.9-.6,2.6s.2.9.5.9,1.5-.3,3.1-1c1.6-.7,2.8-1.3,3.6-1.9.8-.5,1.4-1.1,1.9-1.7.5-.6.8-1.1.8-1.5s0-.1,0-.2c-.1-.2-.6-.5-1.4-.9Z"/>
      <path class="st30" d="M269.5,237.1c.3,0,.6-.1.9-.1,1.1,0,2.1.5,2.9,1.5.9,1,1.5,2.4,2,4.2.3,1,.4,2.7.4,5.3s0,2.7-.2,3.9c0,.5-.1.9-.1,1.1,0,.4.2.7.7.9.9.5,1.3.9,1.3,1.1s-.1.4-.4.9c-.4.7-.7,1-.9,1s-.4-.1-.7-.4c-.3-.3-.5-.4-.6-.4-.2,0-.4.4-.6,1.1-.4,1.4-1.3,2.8-2.5,4.1-1.3,1.3-2.6,2.1-3.9,2.5-.4.1-1.1.2-1.9.2-1.5,0-2.9-.2-4.2-.7-1.2-.6-2.2-1.3-2.9-2.2-.8-.9-1.5-2.2-2-3.9-.1-.3-.2-.7-.4-1.3-.2.3-.6.8-1.2,1.5-.9,1.1-2,2-3.3,2.7-1.3.7-2.6,1-4,1s-.8,0-1.5-.2c-1-.2-1.9-.6-2.8-1.3-.9-.7-1.5-1.4-1.9-2.2-.3-.6-.5-1.1-.6-1.5,0-.4-.1-1.2-.1-2.2v-1.1c0-1.8.2-3.4.4-4.8.3-1.4.8-3.1,1.7-5.2.7-1.7,1.1-2.7,1.4-2.8,0,0,.2,0,.2,0s.4.1.9.4c.3.1.6.3,1.1.6-.2.4-.5,1.2-.9,2.3-1.5,3.5-2.2,6.7-2.2,9.8v.4c0,1.4.1,2.5.4,3.1.3.7.9,1.2,1.7,1.6.8.4,1.5.6,2.3.6s1.8-.2,2.8-.7c2.6-1.3,4.3-4.2,4.9-8.6,0-.5.2-1.2.4-2.1.1,0,.4,0,.8.2.6.1,1,.2,1.2.2s.4,1.2.5,3.5c.2,3.5.7,6.1,1.6,7.7.9,1.6,2.3,2.5,4.2,2.9.7.1,1.2.2,1.5.2,1.4,0,2.6-.5,3.6-1.5.6-.6,1.1-1.4,1.8-2.6.6-1.2.9-2,.9-2.5s-.4-1-1.2-1.7c-.8-.8-1.5-1.8-2.2-2.8-1.6-2.4-2.4-4.9-2.4-7.6s.3-2.7.8-3.7c.6-1,1.3-1.7,2.3-2ZM271.4,240.2c-.3-.3-.6-.5-1-.5s-.6.1-.8.4c-.3.4-.5,1.3-.5,2.9s0,1.7.2,2.3c.3.9.7,1.9,1.3,3,.6,1.1,1.1,1.9,1.6,2.3.2.2.5.4.8.8,0-.3,0-.9.2-1.8,0-.6,0-1,0-1.4,0-1.6-.2-3.2-.5-4.8-.4-1.6-.8-2.7-1.3-3.3Z"/>
    </g>
    <g>
      <path class="st38" d="M97.7,432.3c1.4,4,2,4.5,6.3,4.3-4,1.4-4.5,2-4.3,6.3-1.4-4-2-4.5-6.3-4.3,4.1-1.4,4.5-2.1,4.3-6.3Z"/>
      <path class="st9" d="M150.1,461.5c1.4,4,2,4.5,6.3,4.3-4,1.4-4.5,2-4.3,6.3-1.4-4-2-4.5-6.3-4.3,4.1-1.4,4.6-2,4.3-6.3Z"/>
      <path class="st0" d="M118,358.9c1.4,4,2,4.5,6.3,4.3-4,1.4-4.5,2-4.3,6.3-1.4-4-2-4.5-6.3-4.3,4.1-1.4,4.5-2,4.3-6.3Z"/>
      <path class="st29" d="M83.3,361.4c.6,1.9,1,2.1,2.9,2-1.9.6-2.1,1-2,2.9-.6-1.9-1-2.1-2.9-2,1.9-.8,2.1-1,2-2.9Z"/>
      <path class="st26" d="M96.6,378.6c.6,1.9,1,2.1,2.9,2-1.9.6-2.1,1-2,2.9-.6-1.9-1-2.1-2.9-2,1.9-.6,2-.9,2-2.9Z"/>
      <path class="st28" d="M124.3,449.6c.6,1.9,1,2.1,2.9,2-1.9.6-2.1,1-2,2.9-.6-1.9-1-2.1-2.9-2,1.9-.7,2.1-.9,2-2.9Z"/>
      <path class="st33" d="M74.6,393.7c.6,1.9,1,2.1,2.9,2-1.9.6-2.1,1-2,2.9-.6-1.9-1-2.1-2.9-2,1.9-.7,2.1-1,2-2.9Z"/>
      <path class="st25" d="M209,453.9c.6,1.9,1,2.1,2.9,2-1.9.6-2.1,1-2,2.9-.6-1.9-1-2.1-2.9-2,1.9-.6,2-.9,2-2.9Z"/>
      <path class="st12" d="M128.9,418.3c.6,1.9,1,2.1,2.9,2-1.9.6-2.1,1-2,2.9-.6-1.9-1-2.1-2.9-2,1.8-.8,2.1-1,2-2.9Z"/>
    </g>
    <g>
      <path class="st11" d="M367,134.1c1.8-3.7,1.8-4.4-1.2-7.3,3.7,1.8,4.4,1.8,7.3-1.2-1.8,3.7-1.8,4.4,1.2,7.3-3.7-1.9-4.5-1.8-7.3,1.2Z"/>
      <path class="st3" d="M352.2,78.2c1.8-3.7,1.8-4.4-1.2-7.3,3.7,1.8,4.4,1.8,7.3-1.2-1.8,3.7-1.8,4.4,1.2,7.3-3.7-1.9-4.4-1.8-7.3,1.2Z"/>
      <path class="st13" d="M302.5,169.2c1.8-3.7,1.8-4.4-1.2-7.3,3.7,1.8,4.4,1.8,7.3-1.2-1.8,3.7-1.8,4.4,1.2,7.3-3.7-1.9-4.4-1.8-7.3,1.2Z"/>
      <path class="st24" d="M327.5,191.6c.9-1.7.8-2.1-.6-3.4,1.7.9,2.1.8,3.4-.6-.9,1.7-.8,2.1.6,3.4-1.9-.8-2.1-.7-3.4.6Z"/>
      <path class="st36" d="M330.5,170.8c.9-1.7.8-2.1-.6-3.4,1.7.9,2.1.8,3.4-.6-.9,1.7-.8,2.1.6,3.4-1.7-.9-2-.8-3.4.6Z"/>
      <path class="st27" d="M361.2,104.1c.9-1.7.8-2.1-.6-3.4,1.7.9,2.1.8,3.4-.6-.9,1.7-.8,2.1.6,3.4-1.7-.8-2-.9-3.4.6Z"/>
      <path class="st31" d="M355.8,176c.9-1.7.8-2.1-.6-3.4,1.7.9,2.1.8,3.4-.6-.9,1.7-.8,2.1.6,3.4-1.7-.8-2.1-.8-3.4.6Z"/>
      <path class="st19" d="M307.5,42.4c.9-1.7.8-2.1-.6-3.4,1.7.9,2.1.8,3.4-.6-.9,1.7-.8,2.1.6,3.4-1.7-.9-2-.8-3.4.6Z"/>
      <path class="st32" d="M336.4,121.9c.9-1.7.8-2.1-.6-3.4,1.7.9,2.1.8,3.4-.6-.9,1.7-.8,2.1.6,3.4-1.8-.7-2.1-.8-3.4.6Z"/>
    </g>
    <path class="st20" d="M248.8,53.2c1.3,1.8,2.2,3,4,4.6,1,1,2.7,2.4,2.7,2.4,0,0,9.1-4,10.2-7.1,1.8-5.2-5.7-8.5-8.4-3.9-2.3-6.9-13.2-2.7-8.5,4ZM256.8,49.8c0,.2,0,.5.3.6.5.1.4-.4.6-.6,1.3-2.4,4.4-2.7,6.5-1.1,2.2,1.5,1.7,4.4-.2,6-1.9,1.6-8.4,5-8.4,5,0,0-4.7-3.5-6.5-7.1-1.6-3.1,0-6.9,4.4-6.4,1.8.2,3,1.9,3.4,3.7Z"/>
    <path class="st20" d="M241,25c1,.5,1.8.8,3,1.2.7.2,1.9.4,1.9.4,0,0,3.3-4.1,3-5.8-.4-2.9-4.8-2.5-4.9.2-2.8-2.7-6.8,2-3,4ZM243.9,21.4c0,.1,0,.3.3.2.2,0,.1-.3.1-.4,0-1.5,1.4-2.4,2.8-2.1,1.4.2,1.9,1.7,1.4,2.9-.5,1.2-2.7,4.4-2.7,4.4,0,0-3-.5-4.8-1.7-1.5-1-1.7-3.2.5-4.1.9-.4,1.9.2,2.5.9Z"/>
    <path class="st20" d="M166.4,49.2c2,1.3,3.4,2.2,5.8,3.3,1.4.6,3.7,1.4,3.7,1.4,0,0,7.8-7.5,7.8-11.1,0-6-9-6.5-10.1-.9-4.9-6.3-14.5,2.1-7.2,7.3ZM173.4,42.7c.1.2.1.6.5.5.5,0,.3-.5.4-.8.4-3,3.5-4.4,6.2-3.6,2.8.8,3.4,3.9,2,6.2-1.3,2.3-6.7,8.2-6.7,8.2,0,0-6.1-1.8-9.4-4.8-2.8-2.6-2.6-7,2.1-8.2,2-.5,3.8.8,4.8,2.5Z"/>
    <path class="st20" d="M195.5,17.6c1,1.4,1.7,2.3,3,3.6.8.8,2.1,1.8,2.1,1.8,0,0,7.1-3,7.9-5.3,1.5-4-4.3-6.6-6.4-3.1-1.7-5.4-10.1-2.3-6.6,3ZM201.8,15.1c0,.2,0,.4.2.4.3.1.3-.3.5-.5,1-1.9,3.4-2.1,5-.8,1.7,1.2,1.3,3.4-.2,4.6-1.5,1.2-6.5,3.7-6.5,3.7,0,0-3.6-2.7-5-5.5-1.2-2.4,0-5.3,3.5-4.9,1.4.2,2.3,1.5,2.6,2.9Z"/>
  </g>
</svg>